<svg width="25" height="25" viewBox="0 0 25 25" fill="none" xmlns="http://www.w3.org/2000/svg">
<path d="M5.2641 7.32501C5.0741 7.32501 4.8741 7.24501 4.7341 7.10501C4.4441 6.81501 4.4441 6.33501 4.7341 6.04501L8.3641 2.41501C8.6541 2.12501 9.1341 2.12501 9.4241 2.41501C9.7141 2.70501 9.7141 3.18501 9.4241 3.47501L5.7941 7.10501C5.6441 7.24501 5.4541 7.32501 5.2641 7.32501Z" fill="#292D32"/>
<path d="M18.8843 7.32501C18.6943 7.32501 18.5043 7.25501 18.3543 7.10501L14.7243 3.47501C14.4343 3.18501 14.4343 2.70501 14.7243 2.41501C15.0143 2.12501 15.4943 2.12501 15.7843 2.41501L19.4143 6.04501C19.7043 6.33501 19.7043 6.81501 19.4143 7.10501C19.2743 7.24501 19.0743 7.32501 18.8843 7.32501Z" fill="#292D32"/>
<path d="M20.2842 11.5452C20.2142 11.5452 20.1442 11.5452 20.0742 11.5452H19.8442H4.07422C3.37422 11.5552 2.57422 11.5552 1.99422 10.9752C1.53422 10.5252 1.32422 9.82517 1.32422 8.79517C1.32422 6.04517 3.33422 6.04517 4.29422 6.04517H19.8542C20.8142 6.04517 22.8242 6.04517 22.8242 8.79517C22.8242 9.83517 22.6142 10.5252 22.1542 10.9752C21.6342 11.4952 20.9342 11.5452 20.2842 11.5452ZM4.29422 10.0452H20.0842C20.5342 10.0552 20.9542 10.0552 21.0942 9.91517C21.1642 9.84517 21.3142 9.60517 21.3142 8.79517C21.3142 7.66517 21.0342 7.54517 19.8442 7.54517H4.29422C3.10422 7.54517 2.82422 7.66517 2.82422 8.79517C2.82422 9.60517 2.98422 9.84517 3.04422 9.91517C3.18422 10.0452 3.61422 10.0452 4.05422 10.0452H4.29422Z" fill="#292D32"/>
<path d="M9.83423 19.2451C9.42423 19.2451 9.08423 18.9051 9.08423 18.4951V14.9451C9.08423 14.5351 9.42423 14.1951 9.83423 14.1951C10.2442 14.1951 10.5842 14.5351 10.5842 14.9451V18.4951C10.5842 18.9151 10.2442 19.2451 9.83423 19.2451Z" fill="#292D32"/>
<path d="M14.4343 19.2451C14.0243 19.2451 13.6843 18.9051 13.6843 18.4951V14.9451C13.6843 14.5351 14.0243 14.1951 14.4343 14.1951C14.8443 14.1951 15.1843 14.5351 15.1843 14.9451V18.4951C15.1843 18.9151 14.8443 19.2451 14.4343 19.2451Z" fill="#292D32"/>
<path d="M14.9642 23.6951H8.93422C5.35422 23.6951 4.55422 21.5651 4.24422 19.7151L2.83422 11.0651C2.76422 10.6551 3.04422 10.2751 3.45422 10.2051C3.86422 10.1351 4.24422 10.4151 4.31422 10.8251L5.72422 19.4651C6.01422 21.2351 6.61422 22.1951 8.93422 22.1951H14.9642C17.5342 22.1951 17.8242 21.2951 18.1542 19.5551L19.8342 10.8051C19.9142 10.3951 20.3042 10.1251 20.7142 10.2151C21.1242 10.2951 21.3842 10.6851 21.3042 11.0951L19.6242 19.8451C19.2342 21.8751 18.5842 23.6951 14.9642 23.6951Z" fill="#292D32"/>
</svg>
