<svg width="25" height="25" viewBox="0 0 25 25" fill="none" xmlns="http://www.w3.org/2000/svg">
<rect width="24.7231" height="24.7231" transform="scale(1.0112)" fill="#FCBEBD"/>
<path d="M12.4998 13.8537C12.3643 13.8537 12.2289 13.8225 12.1039 13.7496L2.90604 8.42667C2.53104 8.20792 2.40602 7.72873 2.62477 7.35373C2.84352 6.97873 3.3227 6.85371 3.68728 7.07246L12.4893 12.1662L21.2393 7.10374C21.6143 6.88499 22.0935 7.02043 22.3018 7.38501C22.5206 7.76001 22.3852 8.23914 22.0206 8.45789L12.8852 13.7496C12.7706 13.8121 12.6352 13.8537 12.4998 13.8537Z" fill="#292D32"/>
<path d="M12.5001 23.2914C12.0731 23.2914 11.7189 22.9373 11.7189 22.5102V13.0623C11.7189 12.6352 12.0731 12.281 12.5001 12.281C12.9272 12.281 13.2814 12.6352 13.2814 13.0623V22.5102C13.2814 22.9373 12.9272 23.2914 12.5001 23.2914Z" fill="#292D32"/>
<path d="M12.4998 23.6983C11.5831 23.6983 10.6665 23.5003 9.95815 23.0941L4.39566 20.0108C2.88525 19.1775 1.69776 17.167 1.69776 15.4379V9.54201C1.69776 7.81285 2.88525 5.8129 4.39566 4.96915L9.95815 1.8858C11.3748 1.08372 13.604 1.08372 15.031 1.8858L20.5935 4.96915C22.1039 5.80248 23.2914 7.81285 23.2914 9.54201V15.4379C23.2914 15.542 23.2915 15.6253 23.2706 15.7295C23.2185 16.0003 23.0206 16.2295 22.7602 16.3128C22.4998 16.4066 22.2081 16.3441 21.9894 16.167C20.7914 15.1254 18.9373 15.0837 17.6769 16.0941C16.8748 16.7295 16.4061 17.6983 16.4061 18.7295C16.4061 19.3441 16.5727 19.9483 16.8956 20.4691C16.979 20.615 17.0623 20.7295 17.1561 20.8441C17.3123 21.0212 17.3748 21.2608 17.3332 21.4899C17.2915 21.7191 17.1456 21.917 16.9373 22.0316L15.031 23.0836C14.3227 23.5003 13.4165 23.6983 12.4998 23.6983ZM12.4998 2.86497C11.854 2.86497 11.1977 3.00039 10.729 3.26081L5.16649 6.34416C4.15607 6.89624 3.28107 8.39618 3.28107 9.54201V15.4379C3.28107 16.5837 4.16649 18.0837 5.16649 18.6358L10.729 21.7191C11.6769 22.2503 13.3331 22.2503 14.281 21.7191L15.4477 21.0732C15.0623 20.3753 14.854 19.5628 14.854 18.7295C14.854 17.2087 15.5311 15.8025 16.7081 14.865C18.1248 13.7296 20.156 13.4899 21.7394 14.167V9.52122C21.7394 8.37539 20.854 6.87539 19.854 6.3233L14.2915 3.23995C13.8019 3.00037 13.1456 2.86497 12.4998 2.86497Z" fill="#292D32"/>
<path d="M19.7917 23.6976C18.0626 23.6976 16.4376 22.7809 15.5626 21.2913C15.0938 20.5413 14.8438 19.6559 14.8438 18.7497C14.8438 17.2288 15.5209 15.8226 16.698 14.8851C17.573 14.1872 18.6772 13.8018 19.7917 13.8018C22.5209 13.8018 24.7396 16.0205 24.7396 18.7497C24.7396 19.6559 24.4896 20.5414 24.0209 21.3018C23.7709 21.7393 23.4271 22.1351 23.0313 22.4684C22.1667 23.2601 21.0105 23.6976 19.7917 23.6976ZM19.7917 15.3643C19.0209 15.3643 18.2917 15.6247 17.6772 16.1142C16.8751 16.7496 16.4063 17.7184 16.4063 18.7497C16.4063 19.3643 16.573 19.9684 16.8959 20.4892C17.5105 21.5309 18.5938 22.1351 19.7917 22.1351C20.6146 22.1351 21.4063 21.833 22.0105 21.2913C22.2813 21.0622 22.5105 20.7913 22.6771 20.4997C23.0105 19.9684 23.1771 19.3643 23.1771 18.7497C23.1771 16.8851 21.6563 15.3643 19.7917 15.3643Z" fill="#292D32"/>
<path d="M20.9061 20.6148C20.7082 20.6148 20.5103 20.542 20.354 20.3857L18.1561 18.1878C17.854 17.8857 17.854 17.3857 18.1561 17.0837C18.4582 16.7816 18.9582 16.7816 19.2602 17.0837L21.4582 19.2815C21.7602 19.5836 21.7602 20.0836 21.4582 20.3857C21.3019 20.542 21.104 20.6148 20.9061 20.6148Z" fill="#292D32"/>
<path d="M18.6773 20.646C18.4794 20.646 18.2815 20.5731 18.1252 20.4168C17.8231 20.1147 17.8231 19.6147 18.1252 19.3127L20.3231 17.1148C20.6252 16.8127 21.1252 16.8127 21.4273 17.1148C21.7294 17.4168 21.7294 17.9168 21.4273 18.2189L19.2294 20.4168C19.0731 20.5731 18.8752 20.646 18.6773 20.646Z" fill="#292D32"/>
</svg>
