<svg width="25" height="25" viewBox="0 0 25 25" fill="none" xmlns="http://www.w3.org/2000/svg">
<rect width="24.7231" height="24.7231" transform="scale(1.0112)" fill="#DEF8EA"/>
<path d="M19.7916 23.6978C18.1041 23.6978 16.5103 22.8228 15.6145 21.3853C15.1353 20.6457 14.8645 19.7602 14.8437 18.854C14.8124 17.3332 15.4583 15.9165 16.6145 14.9582C17.4791 14.2394 18.5624 13.8332 19.677 13.8019C21.0312 13.7915 22.2499 14.2603 23.2082 15.1769C24.1666 16.0936 24.7082 17.3228 24.7291 18.6457C24.7499 19.552 24.5207 20.4373 24.0624 21.2186C23.8124 21.6561 23.4895 22.0623 23.1041 22.4061C22.2499 23.2082 21.1041 23.6769 19.8853 23.6978C19.8645 23.6978 19.8332 23.6978 19.7916 23.6978ZM19.7916 15.3644C19.7707 15.3644 19.7395 15.3644 19.7187 15.3644C18.9478 15.3853 18.2187 15.6561 17.6145 16.1561C16.8228 16.8124 16.3853 17.7811 16.4062 18.8228C16.4166 19.4374 16.6041 20.0415 16.927 20.5519C17.5624 21.5727 18.6666 22.1978 19.8541 22.1353C20.677 22.1144 21.4583 21.8019 22.052 21.2499C22.3228 21.0103 22.5416 20.7394 22.7082 20.4478C23.0207 19.9061 23.177 19.3019 23.1666 18.6873C23.1457 17.7811 22.7811 16.9373 22.1249 16.3123C21.4999 15.6977 20.6666 15.3644 19.7916 15.3644Z" fill="#292D32"/>
<path d="M19.2185 20.5731C19.0205 20.5731 18.833 20.5001 18.6768 20.3543L17.6247 19.3543C17.3122 19.0522 17.3018 18.5627 17.6039 18.2502C17.9059 17.9377 18.3955 17.9272 18.708 18.2293L19.2185 18.7189L20.8539 17.1356C21.1664 16.8335 21.6559 16.8439 21.958 17.1564C22.2601 17.4689 22.2497 17.9585 21.9372 18.2606L19.7601 20.3647C19.6039 20.5001 19.406 20.5731 19.2185 20.5731Z" fill="#292D32"/>
<path d="M12.4998 13.8537C12.3643 13.8537 12.2289 13.8225 12.1039 13.7496L2.90604 8.42667C2.53104 8.20792 2.40602 7.72873 2.62477 7.35373C2.84352 6.97873 3.3227 6.85371 3.68728 7.07246L12.4893 12.1662L21.2393 7.10374C21.6143 6.88499 22.0935 7.02043 22.3018 7.38501C22.5206 7.76001 22.3852 8.23914 22.0206 8.45789L12.8852 13.7496C12.7706 13.8121 12.6352 13.8537 12.4998 13.8537Z" fill="#292D32"/>
<path d="M12.5001 23.2914C12.0731 23.2914 11.7189 22.9373 11.7189 22.5102V13.0623C11.7189 12.6352 12.0731 12.281 12.5001 12.281C12.9272 12.281 13.2814 12.6352 13.2814 13.0623V22.5102C13.2814 22.9373 12.9272 23.2914 12.5001 23.2914Z" fill="#292D32"/>
<path d="M12.4998 23.6983C11.5831 23.6983 10.6665 23.5003 9.95815 23.0941L4.39566 20.0108C2.88525 19.1775 1.69776 17.167 1.69776 15.4379V9.54201C1.69776 7.81285 2.88525 5.8129 4.39566 4.96915L9.95815 1.8858C11.3748 1.08372 13.604 1.08372 15.031 1.8858L20.5935 4.96915C22.1039 5.80248 23.2914 7.81285 23.2914 9.54201V15.4379C23.2914 15.542 23.2915 15.6253 23.2706 15.7295C23.2185 16.0003 23.0206 16.2295 22.7602 16.3128C22.4998 16.4066 22.2081 16.3441 21.9894 16.167C20.7914 15.1254 18.9373 15.0837 17.6769 16.0941C16.8748 16.7295 16.4061 17.6983 16.4061 18.7295C16.4061 19.3441 16.5727 19.9483 16.8956 20.4691C16.979 20.615 17.0623 20.7295 17.1561 20.8441C17.3123 21.0212 17.3748 21.2608 17.3332 21.4899C17.2915 21.7191 17.1456 21.917 16.9373 22.0316L15.031 23.0836C14.3227 23.5003 13.4165 23.6983 12.4998 23.6983ZM12.4998 2.86497C11.854 2.86497 11.1977 3.00039 10.729 3.26081L5.16649 6.34416C4.15607 6.89624 3.28107 8.39618 3.28107 9.54201V15.4379C3.28107 16.5837 4.16649 18.0837 5.16649 18.6358L10.729 21.7191C11.6769 22.2503 13.3331 22.2503 14.281 21.7191L15.4477 21.0732C15.0623 20.3753 14.854 19.5628 14.854 18.7295C14.854 17.2087 15.5311 15.8025 16.7081 14.865C18.1248 13.7296 20.1456 13.4899 21.7394 14.167V9.52122C21.7394 8.37539 20.854 6.87539 19.854 6.3233L14.2915 3.23995C13.8019 3.00037 13.1456 2.86497 12.4998 2.86497Z" fill="#292D32"/>
</svg>
