<svg width="25" height="25" viewBox="0 0 25 25" fill="none" xmlns="http://www.w3.org/2000/svg">
<path d="M12.9056 14.1338C12.7756 14.1338 12.6456 14.1039 12.5256 14.0339L3.69561 8.92388C3.33561 8.71388 3.21559 8.25386 3.42559 7.89386C3.63559 7.53386 4.08559 7.41384 4.45559 7.62384L12.9056 12.5139L21.3056 7.65387C21.6656 7.44387 22.1256 7.57388 22.3356 7.92388C22.5456 8.28388 22.4156 8.74385 22.0656 8.95385L13.2956 14.0339C13.1656 14.0939 13.0356 14.1338 12.9056 14.1338Z" fill="white"/>
<path d="M12.9062 23.194C12.4963 23.194 12.1562 22.854 12.1562 22.444V13.374C12.1562 12.964 12.4963 12.624 12.9062 12.624C13.3162 12.624 13.6562 12.964 13.6562 13.374V22.444C13.6562 22.854 13.3162 23.194 12.9062 23.194Z" fill="white"/>
<path d="M12.9069 23.584C12.0269 23.584 11.1569 23.394 10.4669 23.014L5.12686 20.044C3.67686 19.244 2.54688 17.314 2.54688 15.654V10.004C2.54688 8.34396 3.67686 6.42401 5.12686 5.61401L10.4669 2.65398C11.8369 1.89398 13.9769 1.89398 15.3469 2.65398L20.6869 5.62396C22.1369 6.42395 23.2668 8.35397 23.2668 10.014V15.664C23.2668 17.324 22.1369 19.2439 20.6869 20.0539L15.3469 23.014C14.6569 23.394 13.7869 23.584 12.9069 23.584ZM12.9069 3.58398C12.2769 3.58398 11.6569 3.71398 11.1969 3.96398L5.85687 6.93395C4.89687 7.47395 4.04688 8.90397 4.04688 10.014V15.664C4.04688 16.764 4.89687 18.2039 5.85687 18.7439L11.1969 21.714C12.1069 22.224 13.7069 22.224 14.6169 21.714L19.9568 18.7439C20.9168 18.2039 21.7668 16.774 21.7668 15.664V10.014C21.7668 8.91397 20.9168 7.47395 19.9568 6.93395L14.6169 3.96398C14.1569 3.71398 13.5369 3.58398 12.9069 3.58398Z" fill="white"/>
<path d="M17.9074 14.824C17.4974 14.824 17.1574 14.484 17.1574 14.074V10.8541L8.03741 5.59405C7.67741 5.38405 7.55739 4.92403 7.76739 4.57403C7.97739 4.21403 8.42741 4.09401 8.78741 4.30401L18.2774 9.78405C18.5074 9.91405 18.6574 10.164 18.6574 10.434V14.0941C18.6574 14.4841 18.3174 14.824 17.9074 14.824Z" fill="white"/>
</svg>
