<svg width="25" height="25" viewBox="0 0 25 25" fill="none" xmlns="http://www.w3.org/2000/svg">
<path d="M12.0741 14.2449C11.9441 14.2449 11.8141 14.215 11.6941 14.145L2.86407 9.03497C2.50407 8.82497 2.38405 8.36494 2.59405 8.00494C2.80405 7.64494 3.26407 7.52492 3.61407 7.73492L12.0641 12.6249L20.4641 7.76495C20.8241 7.55495 21.2841 7.68497 21.4841 8.03497C21.6941 8.39497 21.5641 8.85494 21.2141 9.06494L12.4441 14.145C12.3341 14.205 12.2041 14.2449 12.0741 14.2449Z" fill="#292D32"/>
<path d="M12.0742 23.3049C11.6642 23.3049 11.3242 22.9649 11.3242 22.5549V13.4849C11.3242 13.0749 11.6642 12.7349 12.0742 12.7349C12.4842 12.7349 12.8242 13.0749 12.8242 13.4849V22.5549C12.8242 22.9649 12.4842 23.3049 12.0742 23.3049Z" fill="#292D32"/>
<path d="M12.0741 23.695C11.1941 23.695 10.3141 23.505 9.63409 23.115L4.2941 20.155C2.8441 19.355 1.7041 17.425 1.7041 15.765V10.105C1.7041 8.44497 2.8441 6.52501 4.2941 5.71501L9.63409 2.75499C10.9941 1.98499 13.1341 1.98499 14.5041 2.75499L19.8441 5.71501C21.2941 6.51501 22.4341 8.44497 22.4341 10.105V15.765C22.4341 15.865 22.4341 15.945 22.4141 16.045C22.3641 16.305 22.1741 16.525 21.9241 16.605C21.6741 16.695 21.3941 16.635 21.1841 16.465C20.0341 15.465 18.2541 15.425 17.0441 16.395C16.2741 17.005 15.8241 17.935 15.8241 18.925C15.8241 19.515 15.9841 20.095 16.2941 20.595C16.3741 20.735 16.4541 20.845 16.5441 20.955C16.6941 21.125 16.7541 21.355 16.7141 21.575C16.6741 21.795 16.5341 21.985 16.3341 22.095L14.5041 23.105C13.8241 23.505 12.9541 23.695 12.0741 23.695ZM12.0741 3.69499C11.4541 3.69499 10.8241 3.825 10.3741 4.075L5.03409 7.03502C4.06409 7.56502 3.22409 9.00497 3.22409 10.105V15.765C3.22409 16.865 4.07409 18.305 5.03409 18.835L10.3741 21.795C11.2841 22.305 12.8741 22.305 13.7841 21.795L14.9041 21.175C14.5341 20.505 14.3341 19.725 14.3341 18.925C14.3341 17.465 14.9841 16.115 16.1141 15.215C17.4741 14.125 19.4241 13.895 20.9441 14.545V10.085C20.9441 8.98501 20.0941 7.545 19.1341 7.015L13.7941 4.05498C13.3241 3.82498 12.6941 3.69499 12.0741 3.69499Z" fill="#292D32"/>
<path d="M19.0742 23.6951C17.4142 23.6951 15.8542 22.8151 15.0142 21.3851C14.5642 20.6651 14.3242 19.8151 14.3242 18.9451C14.3242 17.4851 14.9742 16.135 16.1042 15.235C16.9442 14.565 18.0042 14.1951 19.0742 14.1951C21.6942 14.1951 23.8242 16.3251 23.8242 18.9451C23.8242 19.8151 23.5842 20.6651 23.1342 21.3951C22.8942 21.8151 22.5642 22.1951 22.1842 22.5151C21.3542 23.2751 20.2442 23.6951 19.0742 23.6951ZM19.0742 15.6951C18.3342 15.6951 17.6342 15.945 17.0442 16.415C16.2742 17.025 15.8242 17.9551 15.8242 18.9451C15.8242 19.5351 15.9842 20.1151 16.2942 20.6151C16.8842 21.6151 17.9242 22.1951 19.0742 22.1951C19.8642 22.1951 20.6242 21.9051 21.2042 21.3851C21.4642 21.1651 21.6842 20.9051 21.8442 20.6251C22.1642 20.1151 22.3242 19.5351 22.3242 18.9451C22.3242 17.1551 20.8642 15.6951 19.0742 15.6951Z" fill="#292D32"/>
<path d="M20.1441 20.7349C19.9541 20.7349 19.7641 20.6649 19.6141 20.5149L17.5041 18.4049C17.2141 18.1149 17.2141 17.6349 17.5041 17.3449C17.7941 17.0549 18.2741 17.0549 18.5641 17.3449L20.6741 19.4549C20.9641 19.7449 20.9641 20.2249 20.6741 20.5149C20.5241 20.6649 20.3341 20.7349 20.1441 20.7349Z" fill="#292D32"/>
<path d="M18.0043 20.765C17.8143 20.765 17.6243 20.695 17.4743 20.545C17.1843 20.255 17.1843 19.775 17.4743 19.485L19.5844 17.375C19.8744 17.085 20.3543 17.085 20.6443 17.375C20.9343 17.665 20.9343 18.145 20.6443 18.435L18.5343 20.545C18.3843 20.695 18.1943 20.765 18.0043 20.765Z" fill="#292D32"/>
</svg>
