<svg width="14" height="14" viewBox="0 0 14 14" fill="none" xmlns="http://www.w3.org/2000/svg">
<path d="M8.8935 12.9282H5.67193C2.75641 12.9282 1.51074 11.6825 1.51074 8.76703V5.54547C1.51074 2.62995 2.75641 1.38428 5.67193 1.38428H6.74579C6.96593 1.38428 7.14848 1.56683 7.14848 1.78697C7.14848 2.00711 6.96593 2.18967 6.74579 2.18967H5.67193C3.19669 2.18967 2.31613 3.07023 2.31613 5.54547V8.76703C2.31613 11.2423 3.19669 12.1228 5.67193 12.1228H8.8935C11.3687 12.1228 12.2493 11.2423 12.2493 8.76703V7.69318C12.2493 7.47304 12.4318 7.29048 12.652 7.29048C12.8721 7.29048 13.0547 7.47304 13.0547 7.69318V8.76703C13.0547 11.6825 11.809 12.9282 8.8935 12.9282Z" fill="#FF5A01"/>
<path d="M5.4041 10.2112C5.07658 10.2112 4.7759 10.0931 4.55576 9.8783C4.29266 9.61521 4.17991 9.23399 4.23897 8.83129L4.46985 7.21514C4.5128 6.90372 4.71684 6.50103 4.93698 6.28089L9.16797 2.0499C10.2365 0.981414 11.321 0.981414 12.3895 2.0499C12.9748 2.63515 13.2379 3.23114 13.1842 3.82713C13.1359 4.31036 12.8781 4.78286 12.3895 5.2661L8.15854 9.49709C7.9384 9.71723 7.53571 9.92126 7.22429 9.96421L5.60814 10.1951C5.53834 10.2112 5.46853 10.2112 5.4041 10.2112ZM9.73711 2.61904L5.50612 6.85003C5.4041 6.95205 5.28598 7.1883 5.2645 7.3279L5.03362 8.94405C5.01215 9.09976 5.04436 9.22862 5.1249 9.30916C5.20544 9.3897 5.3343 9.42192 5.49001 9.40044L7.10616 9.16956C7.24577 9.14808 7.48738 9.02996 7.58403 8.92794L11.815 4.69695C12.164 4.34795 12.3466 4.03653 12.3734 3.74659C12.4056 3.39759 12.2231 3.02711 11.815 2.61367C10.9559 1.75459 10.3653 1.99621 9.73711 2.61904Z" fill="#FF5A01"/>
<path d="M11.4981 5.99112C11.4605 5.99112 11.4229 5.98575 11.3907 5.97501C9.97858 5.57768 8.85641 4.4555 8.45908 3.04338C8.40002 2.82861 8.52351 2.60847 8.73828 2.54404C8.95305 2.48498 9.17319 2.60847 9.23225 2.82324C9.55441 3.9669 10.4618 4.87431 11.6055 5.19646C11.8202 5.25552 11.9437 5.48103 11.8847 5.6958C11.8364 5.87836 11.6753 5.99112 11.4981 5.99112Z" fill="#FF5A01"/>
</svg>
