<svg width="20" height="21" viewBox="0 0 20 21" fill="none" xmlns="http://www.w3.org/2000/svg">
<path d="M14.7845 19.7304H5.20924C2.94358 19.7304 1.10791 17.8865 1.10791 15.6209V9.49367C1.10791 8.36911 1.80249 6.95515 2.69552 6.26057L7.1524 2.78767C8.49195 1.7458 10.6336 1.69619 12.0227 2.67191L17.1328 6.2523C18.1168 6.93861 18.8858 8.41046 18.8858 9.60943V15.6291C18.8858 17.8865 17.0502 19.7304 14.7845 19.7304ZM7.91313 3.76339L3.45625 7.23629C2.86916 7.69934 2.34823 8.74948 2.34823 9.49367V15.6209C2.34823 17.2002 3.62989 18.4901 5.20924 18.4901H14.7845C16.3638 18.4901 17.6455 17.2085 17.6455 15.6291V9.60943C17.6455 8.81563 17.075 7.71588 16.4217 7.26936L11.3116 3.68897C10.369 3.02747 8.81443 3.06054 7.91313 3.76339Z" fill="white"/>
<path d="M9.99687 16.4229C9.65785 16.4229 9.37671 16.1417 9.37671 15.8027V13.3221C9.37671 12.983 9.65785 12.7019 9.99687 12.7019C10.3359 12.7019 10.617 12.983 10.617 13.3221V15.8027C10.617 16.1417 10.3359 16.4229 9.99687 16.4229Z" fill="white"/>
</svg>
