<svg width="15" height="15" viewBox="0 0 15 15" fill="none" xmlns="http://www.w3.org/2000/svg">
<path d="M7.71701 13.5693C4.17926 13.5693 1.30371 10.6937 1.30371 7.15598C1.30371 3.61822 4.17926 0.742676 7.71701 0.742676C11.2548 0.742676 14.1303 3.61822 14.1303 7.15598C14.1303 10.6937 11.2548 13.5693 7.71701 13.5693ZM7.71701 1.63756C4.67442 1.63756 2.19859 4.11339 2.19859 7.15598C2.19859 10.1986 4.67442 12.6744 7.71701 12.6744C10.7596 12.6744 13.2354 10.1986 13.2354 7.15598C13.2354 4.11339 10.7596 1.63756 7.71701 1.63756Z" fill="#06A3B1"/>
<path d="M7.71697 8.20008C7.47237 8.20008 7.26953 7.99724 7.26953 7.75264V4.76971C7.26953 4.5251 7.47237 4.32227 7.71697 4.32227C7.96157 4.32227 8.16441 4.5251 8.16441 4.76971V7.75264C8.16441 7.99724 7.96157 8.20008 7.71697 8.20008Z" fill="#06A3B1"/>
<path d="M7.7167 10.1394C7.63915 10.1394 7.56159 10.1215 7.49 10.0917C7.41841 10.0619 7.35279 10.0201 7.29313 9.9664C7.23943 9.90674 7.19767 9.84708 7.16784 9.76952C7.13801 9.69793 7.12012 9.62038 7.12012 9.54282C7.12012 9.46527 7.13801 9.38771 7.16784 9.31612C7.19767 9.24453 7.23943 9.1789 7.29313 9.11925C7.35279 9.06555 7.41841 9.02379 7.49 8.99396C7.63318 8.9343 7.80023 8.9343 7.94341 8.99396C8.015 9.02379 8.08062 9.06555 8.14028 9.11925C8.19397 9.1789 8.23573 9.24453 8.26556 9.31612C8.29539 9.38771 8.31329 9.46527 8.31329 9.54282C8.31329 9.62038 8.29539 9.69793 8.26556 9.76952C8.23573 9.84708 8.19397 9.90674 8.14028 9.9664C8.08062 10.0201 8.015 10.0619 7.94341 10.0917C7.87182 10.1215 7.79426 10.1394 7.7167 10.1394Z" fill="#06A3B1"/>
</svg>
