<svg width="23" height="23" viewBox="0 0 23 23" fill="none" xmlns="http://www.w3.org/2000/svg">
<path d="M8.10416 2.00467H8.22333C12.2933 2.00467 14.255 3.60884 14.5942 7.20217C14.6308 7.57801 14.3558 7.91717 13.9708 7.95384C13.6042 7.99051 13.2558 7.70634 13.2192 7.33051C12.9533 4.45217 11.5967 3.37967 8.21416 3.37967H8.095C4.36416 3.37967 3.04416 4.69967 3.04416 8.43051L3.04416 14.4072C3.04416 18.138 4.36416 19.458 8.095 19.458H8.21416C11.615 19.458 12.9717 18.3672 13.2192 15.4338C13.265 15.058 13.5858 14.7738 13.9708 14.8105C14.3558 14.838 14.6308 15.1772 14.6033 15.553C14.2917 19.2013 12.3208 20.833 8.22333 20.833H8.10416C3.60333 20.833 1.67833 18.908 1.67833 14.4072L1.67833 8.43051C1.67833 3.92967 3.60333 2.00467 8.10416 2.00467Z" fill="#E71F1F"/>
<path d="M8.32419 10.7314L18.7559 10.7314C19.1317 10.7314 19.4434 11.0431 19.4434 11.4189C19.4434 11.7948 19.1317 12.1064 18.7559 12.1064L8.32419 12.1064C7.94836 12.1064 7.63669 11.7948 7.63669 11.4189C7.63669 11.0431 7.94836 10.7314 8.32419 10.7314Z" fill="#E71F1F"/>
<path d="M16.7117 7.66067C16.8859 7.66067 17.0601 7.72484 17.1976 7.86234L20.2684 10.9332C20.5342 11.199 20.5342 11.639 20.2684 11.9048L17.1976 14.9757C16.9317 15.2415 16.4917 15.2415 16.2259 14.9757C15.9601 14.7098 15.9601 14.2698 16.2259 14.004L18.8109 11.419L16.2259 8.83401C15.9601 8.56817 15.9601 8.12817 16.2259 7.86234C16.3542 7.72484 16.5376 7.66067 16.7117 7.66067Z" fill="#E71F1F"/>
</svg>
