<svg width="24" height="24" viewBox="0 0 24 24" fill="none" xmlns="http://www.w3.org/2000/svg">
<path d="M13.05 16.2497H11.17C9.84001 16.2497 8.75 15.1297 8.75 13.7497C8.75 13.3397 9.09 12.9997 9.5 12.9997C9.91 12.9997 10.25 13.3397 10.25 13.7497C10.25 14.2997 10.66 14.7497 11.17 14.7497H13.05C13.44 14.7497 13.75 14.3997 13.75 13.9697C13.75 13.4297 13.6 13.3497 13.26 13.2297L10.25 12.1797C9.61 11.9497 8.75 11.4897 8.75 10.0197C8.75 8.76974 9.74001 7.73975 10.95 7.73975H12.83C14.16 7.73975 15.25 8.85975 15.25 10.2397C15.25 10.6497 14.91 10.9897 14.5 10.9897C14.09 10.9897 13.75 10.6497 13.75 10.2397C13.75 9.68975 13.34 9.23975 12.83 9.23975H10.95C10.56 9.23975 10.25 9.58974 10.25 10.0197C10.25 10.5597 10.4 10.6397 10.74 10.7597L13.75 11.8097C14.39 12.0397 15.25 12.4997 15.25 13.9697C15.25 15.2297 14.26 16.2497 13.05 16.2497Z" fill="#292D32"/>
<path d="M12 17.25C11.59 17.25 11.25 16.91 11.25 16.5V7.5C11.25 7.09 11.59 6.75 12 6.75C12.41 6.75 12.75 7.09 12.75 7.5V16.5C12.75 16.91 12.41 17.25 12 17.25Z" fill="#292D32"/>
<path d="M12 22.75C6.07 22.75 1.25 17.93 1.25 12C1.25 6.07 6.07 1.25 12 1.25C12.41 1.25 12.75 1.59 12.75 2C12.75 2.41 12.41 2.75 12 2.75C6.9 2.75 2.75 6.9 2.75 12C2.75 17.1 6.9 21.25 12 21.25C17.1 21.25 21.25 17.1 21.25 12C21.25 11.59 21.59 11.25 22 11.25C22.41 11.25 22.75 11.59 22.75 12C22.75 17.93 17.93 22.75 12 22.75Z" fill="#292D32"/>
<path d="M21.9999 6.75C21.5899 6.75 21.2499 6.41 21.2499 6V2.75H17.9999C17.5899 2.75 17.2499 2.41 17.2499 2C17.2499 1.59 17.5899 1.25 17.9999 1.25H21.9999C22.4099 1.25 22.7499 1.59 22.7499 2V6C22.7499 6.41 22.4099 6.75 21.9999 6.75Z" fill="#292D32"/>
<path d="M16.9998 7.74994C16.8098 7.74994 16.6198 7.67994 16.4698 7.52994C16.1798 7.23994 16.1798 6.75994 16.4698 6.46994L21.4698 1.46994C21.7598 1.17994 22.2398 1.17994 22.5298 1.46994C22.8198 1.75994 22.8198 2.23994 22.5298 2.52994L17.5298 7.52994C17.3798 7.67994 17.1898 7.74994 16.9998 7.74994Z" fill="#292D32"/>
</svg>
