<svg width="25" height="25" viewBox="0 0 25 25" fill="none" xmlns="http://www.w3.org/2000/svg">
<path d="M12.0742 16.6951C10.0042 16.6951 8.32422 15.0151 8.32422 12.9451C8.32422 10.8751 10.0042 9.19507 12.0742 9.19507C14.1442 9.19507 15.8242 10.8751 15.8242 12.9451C15.8242 15.0151 14.1442 16.6951 12.0742 16.6951ZM12.0742 10.6951C10.8342 10.6951 9.82422 11.7051 9.82422 12.9451C9.82422 14.1851 10.8342 15.1951 12.0742 15.1951C13.3142 15.1951 14.3242 14.1851 14.3242 12.9451C14.3242 11.7051 13.3142 10.6951 12.0742 10.6951Z" fill="white"/>
<path d="M15.2842 23.1351C15.0742 23.1351 14.8642 23.1051 14.6542 23.0551C14.0342 22.8851 13.5142 22.4951 13.1842 21.9451L13.0642 21.7451C12.4742 20.7251 11.6642 20.7251 11.0742 21.7451L10.9642 21.9351C10.6342 22.4951 10.1142 22.8951 9.49422 23.0551C8.86422 23.2251 8.21422 23.1351 7.66422 22.8051L5.94422 21.8151C5.33422 21.4651 4.89422 20.8951 4.70422 20.2051C4.52422 19.5151 4.61422 18.8051 4.96422 18.1951C5.25422 17.6851 5.33422 17.2251 5.16422 16.9351C4.99422 16.6451 4.56422 16.4751 3.97422 16.4751C2.51422 16.4751 1.32422 15.2851 1.32422 13.8251V12.0651C1.32422 10.6051 2.51422 9.41511 3.97422 9.41511C4.56422 9.41511 4.99422 9.24511 5.16422 8.95511C5.33422 8.66511 5.26422 8.20511 4.96422 7.69511C4.61422 7.08511 4.52422 6.36511 4.70422 5.68511C4.88422 4.99511 5.32422 4.42511 5.94422 4.07511L7.67422 3.08511C8.80422 2.41511 10.2942 2.80511 10.9742 3.95511L11.0942 4.15511C11.6842 5.17511 12.4942 5.17511 13.0842 4.15511L13.1942 3.96511C13.8742 2.80511 15.3642 2.41511 16.5042 3.09511L18.2242 4.08511C18.8342 4.43511 19.2742 5.00511 19.4642 5.69511C19.6442 6.38511 19.5542 7.09511 19.2042 7.70511C18.9142 8.21511 18.8342 8.67511 19.0042 8.96511C19.1742 9.25511 19.6042 9.42511 20.1942 9.42511C21.6542 9.42511 22.8442 10.6151 22.8442 12.0751V13.8351C22.8442 15.2951 21.6542 16.4851 20.1942 16.4851C19.6042 16.4851 19.1742 16.6551 19.0042 16.9451C18.8342 17.2351 18.9042 17.6951 19.2042 18.2051C19.5542 18.8151 19.6542 19.5351 19.4642 20.2151C19.2842 20.9051 18.8442 21.4751 18.2242 21.8251L16.4942 22.8151C16.1142 23.0251 15.7042 23.1351 15.2842 23.1351ZM12.0742 19.4351C12.9642 19.4351 13.7942 19.9951 14.3642 20.9851L14.4742 21.1751C14.5942 21.3851 14.7942 21.5351 15.0342 21.5951C15.2742 21.6551 15.5142 21.6251 15.7142 21.5051L17.4442 20.5051C17.7042 20.3551 17.9042 20.1051 17.9842 19.8051C18.0642 19.5051 18.0242 19.1951 17.8742 18.9351C17.3042 17.9551 17.2342 16.9451 17.6742 16.1751C18.1142 15.4051 19.0242 14.9651 20.1642 14.9651C20.8042 14.9651 21.3142 14.4551 21.3142 13.8151V12.0551C21.3142 11.4251 20.8042 10.9051 20.1642 10.9051C19.0242 10.9051 18.1142 10.4651 17.6742 9.69511C17.2342 8.92511 17.3042 7.91511 17.8742 6.93511C18.0242 6.67511 18.0642 6.36511 17.9842 6.06511C17.9042 5.76511 17.7142 5.52511 17.4542 5.36511L15.7242 4.37511C15.2942 4.11511 14.7242 4.26511 14.4642 4.70511L14.3542 4.89511C13.7842 5.88511 12.9542 6.44511 12.0642 6.44511C11.1742 6.44511 10.3442 5.88511 9.77422 4.89511L9.66422 4.69511C9.41422 4.27511 8.85422 4.12511 8.42422 4.37511L6.69422 5.37511C6.43422 5.52511 6.23422 5.77511 6.15422 6.07511C6.07422 6.37511 6.11422 6.68511 6.26422 6.94511C6.83422 7.92511 6.90422 8.93511 6.46422 9.70511C6.02422 10.4751 5.11422 10.9151 3.97422 10.9151C3.33422 10.9151 2.82422 11.4251 2.82422 12.0651V13.8251C2.82422 14.4551 3.33422 14.9751 3.97422 14.9751C5.11422 14.9751 6.02422 15.4151 6.46422 16.1851C6.90422 16.9551 6.83422 17.9651 6.26422 18.9451C6.11422 19.2051 6.07422 19.5151 6.15422 19.8151C6.23422 20.1151 6.42422 20.3551 6.68422 20.5151L8.41422 21.5051C8.62422 21.6351 8.87422 21.6651 9.10422 21.6051C9.34422 21.5451 9.54422 21.3851 9.67422 21.1751L9.78422 20.9851C10.3542 20.0051 11.1842 19.4351 12.0742 19.4351Z" fill="white"/>
</svg>
