<svg width="25" height="25" viewBox="0 0 25 25" fill="none" xmlns="http://www.w3.org/2000/svg">
<path d="M16.0742 23.6951H8.07422C4.63422 23.6951 2.32422 21.3851 2.32422 17.9451V7.94507C2.32422 4.50507 4.63422 2.19507 8.07422 2.19507H13.0042C14.5442 2.19507 15.9842 2.79506 17.0742 3.87506L20.1442 6.94507C21.2342 8.02507 21.8242 9.47508 21.8242 11.0151V17.9451C21.8242 21.3851 19.5142 23.6951 16.0742 23.6951ZM8.07422 3.69507C5.49422 3.69507 3.82422 5.36507 3.82422 7.94507V17.9451C3.82422 20.5251 5.49422 22.1951 8.07422 22.1951H16.0742C18.6542 22.1951 20.3242 20.5251 20.3242 17.9451V11.0151C20.3242 9.87508 19.8842 8.81508 19.0742 8.01508L16.0042 4.94507C15.2042 4.14507 14.1342 3.70508 12.9942 3.70508H8.07422V3.69507Z" fill="#292D32"/>
<path d="M9.57416 19.695C9.38416 19.695 9.19416 19.6251 9.04416 19.4751L7.04416 17.4751C6.75416 17.1851 6.75416 16.705 7.04416 16.415L9.04416 14.415C9.33416 14.125 9.81416 14.125 10.1042 14.415C10.3942 14.705 10.3942 15.1851 10.1042 15.4751L8.63416 16.945L10.1042 18.415C10.3942 18.705 10.3942 19.1851 10.1042 19.4751C9.95416 19.6251 9.76416 19.695 9.57416 19.695Z" fill="#292D32"/>
<path d="M14.5742 19.695C14.3842 19.695 14.1942 19.6251 14.0442 19.4751C13.7542 19.1851 13.7542 18.705 14.0442 18.415L15.5142 16.945L14.0442 15.4751C13.7542 15.1851 13.7542 14.705 14.0442 14.415C14.3342 14.125 14.8142 14.125 15.1042 14.415L17.1042 16.415C17.3942 16.705 17.3942 17.1851 17.1042 17.4751L15.1042 19.4751C14.9542 19.6251 14.7642 19.695 14.5742 19.695Z" fill="#292D32"/>
</svg>
