<svg width="25" height="25" viewBox="0 0 25 25" fill="none" xmlns="http://www.w3.org/2000/svg">
<path d="M12.1443 22.9251C10.7343 22.9251 9.31431 22.3851 8.24431 21.3151L3.71431 16.7851C2.61431 15.6851 2.03431 14.1651 2.10431 12.6151L2.34431 7.60515C2.45431 5.21515 4.34431 3.32515 6.74431 3.20515L11.7443 2.96515C13.3043 2.89515 14.8143 3.47515 15.9143 4.57515L20.4443 9.10515C22.5943 11.2551 22.5943 14.7651 20.4443 16.9151L16.0543 21.3051C14.9743 22.3851 13.5643 22.9251 12.1443 22.9251ZM4.77431 15.7151L9.30431 20.2451C10.8743 21.8151 13.4243 21.8151 14.9943 20.2451L19.3843 15.8551C20.9543 14.2851 20.9543 11.7351 19.3843 10.1651L14.8443 5.64515C14.0443 4.84515 12.9543 4.42515 11.8043 4.47515L6.80431 4.71515C5.18431 4.78515 3.91431 6.05515 3.83431 7.67515L3.59431 12.6851C3.54431 13.8051 3.97431 14.9151 4.77431 15.7151Z" fill="white"/>
<path d="M9.57422 13.6951C7.78422 13.6951 6.32422 12.2351 6.32422 10.4451C6.32422 8.65507 7.78422 7.19507 9.57422 7.19507C11.3642 7.19507 12.8242 8.65507 12.8242 10.4451C12.8242 12.2351 11.3642 13.6951 9.57422 13.6951ZM9.57422 8.69507C8.61422 8.69507 7.82422 9.48507 7.82422 10.4451C7.82422 11.4051 8.61422 12.1951 9.57422 12.1951C10.5342 12.1951 11.3242 11.4051 11.3242 10.4451C11.3242 9.48507 10.5342 8.69507 9.57422 8.69507Z" fill="white"/>
<path d="M13.0742 18.695C12.8842 18.695 12.6942 18.625 12.5442 18.475C12.2542 18.185 12.2542 17.705 12.5442 17.415L16.5442 13.415C16.8342 13.125 17.3142 13.125 17.6042 13.415C17.8942 13.705 17.8942 14.185 17.6042 14.475L13.6042 18.475C13.4542 18.625 13.2642 18.695 13.0742 18.695Z" fill="white"/>
</svg>
