<svg width="15" height="15" viewBox="0 0 15 15" fill="none" xmlns="http://www.w3.org/2000/svg">
<path d="M9.88648 3.57677V3.09951C9.88648 2.43127 9.88648 2.09715 9.75643 1.84191C9.64204 1.6174 9.45951 1.43487 9.235 1.32048C8.97976 1.19043 8.64564 1.19043 7.9774 1.19043H7.02287C6.35463 1.19043 6.02051 1.19043 5.76527 1.32048C5.54076 1.43487 5.35823 1.6174 5.24384 1.84191C5.11379 2.09715 5.11379 2.43127 5.11379 3.09951V3.57677M6.30696 6.858V9.84093M8.69331 6.858V9.84093M2.13086 3.57677H12.8694M11.6762 3.57677V10.2585C11.6762 11.2609 11.6762 11.7621 11.4812 12.1449C11.3096 12.4817 11.0358 12.7555 10.699 12.9271C10.3162 13.1222 9.81498 13.1222 8.81262 13.1222H6.18765C5.18529 13.1222 4.68411 13.1222 4.30126 12.9271C3.96449 12.7555 3.69069 12.4817 3.5191 12.1449C3.32403 11.7621 3.32403 11.2609 3.32403 10.2585V3.57677" stroke="#FF0000" stroke-width="0.743702" stroke-linecap="round" stroke-linejoin="round"/>
</svg>
