<svg width="25" height="25" viewBox="0 0 25 25" fill="none" xmlns="http://www.w3.org/2000/svg">
<path d="M13.0742 12.8452H7.07422C6.66422 12.8452 6.32422 12.5052 6.32422 12.0952C6.32422 11.6852 6.66422 11.3452 7.07422 11.3452H13.0742C13.4842 11.3452 13.8242 11.6852 13.8242 12.0952C13.8242 12.5052 13.4842 12.8452 13.0742 12.8452Z" fill="white"/>
<path d="M2.07422 12.8452C1.66422 12.8452 1.32422 12.5052 1.32422 12.0952V7.47516C1.32422 5.02516 3.31422 3.03516 5.76422 3.03516H11.3842C13.9542 3.03516 15.8242 4.74515 15.8242 7.09515C15.8242 7.50515 15.4842 7.84515 15.0742 7.84515C14.6642 7.84515 14.3242 7.50515 14.3242 7.09515C14.3242 5.33515 12.7942 4.53516 11.3842 4.53516H5.76422C4.14422 4.53516 2.82422 5.85516 2.82422 7.47516V12.0952C2.82422 12.5152 2.48422 12.8452 2.07422 12.8452Z" fill="white"/>
<path d="M16.0742 22.8452H6.07422C3.45422 22.8452 1.32422 20.7152 1.32422 18.0952V11.0952C1.32422 8.47521 3.45422 6.34521 6.07422 6.34521H16.0742C18.6942 6.34521 20.8242 8.47521 20.8242 11.0952V12.5452C20.8242 12.9552 20.4842 13.2952 20.0742 13.2952H18.9942C18.6442 13.2952 18.3242 13.4252 18.0942 13.6652L18.0842 13.6752C17.7542 14.0052 17.6242 14.4652 17.7442 14.9152C17.8942 15.4752 18.4842 15.8852 19.1442 15.8852H20.0742C20.4842 15.8852 20.8242 16.2252 20.8242 16.6352V18.0852C20.8242 20.7152 18.6942 22.8452 16.0742 22.8452ZM6.07422 7.84521C4.28422 7.84521 2.82422 9.30521 2.82422 11.0952V18.0952C2.82422 19.8852 4.28422 21.3452 6.07422 21.3452H16.0742C17.8642 21.3452 19.3242 19.8852 19.3242 18.0952V17.3952H19.1442C17.7942 17.3952 16.6242 16.5452 16.2942 15.3152C16.0342 14.3452 16.3142 13.3152 17.0242 12.6152C17.5442 12.0852 18.2442 11.7952 18.9942 11.7952H19.3242V11.0952C19.3242 9.30521 17.8642 7.84521 16.0742 7.84521H6.07422Z" fill="white"/>
<path d="M21.0441 17.395H19.1141C17.6041 17.395 16.3241 16.275 16.2041 14.835C16.1241 14.005 16.4241 13.1949 17.0241 12.6049C17.5241 12.0849 18.2341 11.7949 18.9841 11.7949H21.0341C22.0141 11.7949 22.8141 12.5849 22.8141 13.5649V15.6249C22.8241 16.6049 22.0241 17.395 21.0441 17.395ZM18.9941 13.2949C18.6441 13.2949 18.3241 13.4249 18.0941 13.6649C17.8041 13.9449 17.6641 14.325 17.7041 14.705C17.7541 15.365 18.3941 15.895 19.1141 15.895H21.0441C21.1941 15.895 21.3241 15.7749 21.3241 15.6249V13.5649C21.3241 13.4149 21.1941 13.2949 21.0441 13.2949H18.9941Z" fill="white"/>
</svg>
