<?xml version="1.0" encoding="UTF-8" standalone="no"?>
<!-- Created with Inkscape (http://www.inkscape.org/) -->

<svg
   width="227.53366mm"
   height="265.26752mm"
   viewBox="0 0 227.53366 265.26752"
   version="1.1"
   id="svg1"
   xml:space="preserve"
   xmlns="http://www.w3.org/2000/svg"
   xmlns:svg="http://www.w3.org/2000/svg"><defs
     id="defs1" /><g
     id="layer1"
     transform="translate(376.14603,-18.554765)"><g
       id="g2"
       transform="matrix(0.26458333,0,0,0.26458333,-401.11777,23.83528)"><path
         fill="#1f2b57"
         d="m 568.789,93.2227 c 18.885,-0.838 37.626,3.6401 54.093,12.9253 5.155,2.86 9.924,6.473 15.162,9.16 11.473,5.885 21.637,9.817 32.047,18.069 21.525,17.062 33.917,41.133 37.017,68.246 3.632,31.777 -1.907,60.337 -22.099,85.725 9.937,4.585 19.684,9.616 29.546,14.364 40.774,19.723 81.338,39.878 121.683,60.462 36.975,18.568 74.515,36.141 111.048,55.573 2.345,1.247 6.151,2.975 6.856,5.708 0.553,2.144 -0.03,4.773 -1.286,6.581 -1.09,1.57 -2.716,2.127 -4.459,2.631 -5.912,1.71 -12.179,2.645 -18.224,3.836 -9.012,1.777 -17.995,3.642 -27.026,5.326 -27.021,5.037 -54.149,9.984 -80.973,15.993 8.364,7.281 17.411,13.906 26.044,20.877 l 52.589,42.627 c 5.356,4.309 26.429,19.104 28.911,23.916 0.778,1.51 0.781,3.523 0.284,5.117 -0.788,2.533 -3.143,3.769 -5.279,5.072 -8.08,4.93 -17.236,8.666 -25.717,12.914 -23.744,11.892 -48.028,23.088 -71.289,35.895 l -0.058,147.07 0.075,46.522 c -0.015,7.846 0.692,16.497 -0.636,24.198 -8.761,6.319 -19.691,10.761 -29.334,15.651 l -60.429,30.479 c -56.189,29.133 -112.591,57.853 -169.203,86.156 -12.52,6.186 -24.819,12.815 -37.223,19.231 -6.004,3.105 -12.044,6.745 -18.374,9.081 -8.7,-2.326 -22.874,-10.826 -31.457,-15.078 L 406.417,930.456 281.158,867.484 c -10.236,-5.083 -79.835,-38.391 -83.303,-42.057 -1.3,-1.375 -1.207,-6.257 -1.272,-8.212 -0.654,-19.544 0.273,-39.257 0.222,-58.825 l -0.267,-153.972 c -8.675,-5.508 -18.585,-9.708 -27.781,-14.342 l -43.023,-21.991 c -6.209,-3.113 -27.6639,-12.379 -31.2703,-17.018 -0.2716,-2.463 0.1035,-4.195 1.5037,-6.277 4.1146,-6.118 23.5906,-19.789 30.5906,-25.367 l 59.064,-46.26 c 10.886,-8.509 21.866,-18.532 33.768,-25.54 7.462,-4.394 15.757,-7.585 23.6,-11.267 15.078,-7.067 30.093,-14.267 45.043,-21.601 l 163.226,-81.42 c 13.122,-6.597 26.305,-13.074 39.546,-19.432 6.616,-3.166 14.415,-6.045 20.571,-9.978 2.461,-1.572 8.862,-11.579 11.445,-14.686 4.27,-5.135 8.923,-10.26 13.873,-14.759 16.984,-15.438 42.404,-22.23 55.145,-42.414 3.193,-5.058 5.249,-11.41 3.767,-17.371 -1.603,-6.444 -6.303,-10.297 -11.695,-13.57 -3.281,0.471 -6.411,1.119 -9.514,2.3 -16.786,6.387 -30.509,22.163 -32.529,40.299 -0.499,4.481 0.282,11.338 -1.71,15.345 -0.616,1.239 -1.494,1.502 -2.733,1.993 -9.773,3.877 -20.456,6.581 -30.496,9.787 -15.703,5.16 -31.374,10.416 -47.012,15.769 -5.004,-2.744 -9.795,-6.179 -14.698,-9.141 -6.763,-4.086 -14.584,-7.922 -20.656,-12.955 l -0.035,-0.946 c -1.217,-42.28 21.168,-93.125 49.855,-123.704 24.883,-26.524 57.36,-45.414 94.406,-46.6493 z"
         id="path2-9" /><path
         fill="#ffffff"
         d="m 812.945,612.013 c 0.772,1.149 0.615,2.509 0.647,3.873 0.538,22.546 -0.088,45.28 -0.11,67.842 l -0.005,128.975 c -4.697,3.752 -11.057,6.368 -16.417,9.105 -10.587,5.482 -21.25,10.816 -31.985,16 -16.801,8.259 -33.358,17.154 -50.062,25.628 -52.171,26.464 -103.916,53.703 -156.379,79.607 -13.189,6.513 -25.988,13.869 -39.366,19.992 l -0.283,-17.195 c 12.815,-5.577 25.156,-12.387 37.554,-18.83 l 56.82,-29.43 140.691,-73.113 c 7.673,-4.014 15.677,-7.394 23.319,-11.463 1.637,-0.871 4.336,-2.175 5.423,-3.663 1.054,-1.444 1.089,-2.66 0.722,-4.339 -0.502,-0.652 -0.704,-1.139 -1.505,-1.451 -1.798,-0.7 -3.778,0.167 -5.417,0.952 -10.631,5.097 -21.046,11.071 -31.489,16.575 l -53.232,27.663 -172.647,89.044 c -0.159,-2.724 -0.047,-5.464 -0.002,-8.191 11.562,-5.835 23.009,-11.873 34.639,-17.608 62.392,-31.334 124.418,-63.393 186.063,-96.171 6.782,-3.53 39.783,-19.031 42.747,-21.953 1.271,-1.253 1.252,-2.392 1.21,-4.035 -0.382,-0.688 -0.408,-1.072 -1.188,-1.392 -1.992,-0.816 -4.534,0.201 -6.391,1.02 -17.93,7.911 -35.114,17.858 -52.517,26.843 -47.448,24.495 -94.553,49.654 -142.247,73.669 -20.618,10.382 -41.103,21.711 -62.44,30.545 -0.543,-14.098 -0.174,-28.323 -0.208,-42.435 l -0.108,-78.875 -0.055,-185.366 78.083,58.742 24.307,18.349 c 4.763,3.584 9.511,7.537 14.662,10.531 4.943,-1.632 9.902,-5.148 14.604,-7.543 l 38.078,-19.341 c 19.536,-10.133 39.451,-19.548 59.036,-29.585 21.71,-11.125 43.256,-22.851 65.448,-32.976 z"
         id="path3-4" /><path
         fill="#1f2b57"
         d="m 625.338,713.452 c 1.778,-0.011 2.743,0.017 4.259,0.959 1.6,3.139 0.215,21.836 0.302,26.949 0.024,1.397 -0.019,3.231 1.009,4.216 1.437,-0.525 1.903,-1.946 2.939,-2.952 0.91,-0.883 1.343,-0.814 2.541,-0.892 0.881,0.5 1.315,0.818 1.841,1.72 1.288,2.207 2.976,20.042 1.666,22.23 -1.347,2.25 -6.598,3.791 -8.934,4.777 -0.011,7.083 -0.091,14.165 -0.242,21.246 -3.955,4.033 -16.874,11.081 -22.363,12.416 -1.563,0.38 -2.544,0.306 -3.91,-0.515 -2.011,-5.069 -0.105,-13.358 -0.066,-18.887 l -8.039,4.036 c -6.384,3.35 -19.821,10.463 -26.383,11.698 -0.942,-0.355 -1.17,-0.437 -1.659,-1.388 -1.279,-2.492 -1.42,-7.532 -0.553,-10.179 2.221,-6.783 9.185,-17.801 12.784,-24.506 6.087,-11.342 11.722,-23.055 18.018,-34.26 0.779,-1.387 1.659,-2.778 2.845,-3.855 4.648,-4.223 17.66,-9.47 23.945,-12.813 z"
         id="path4-8" /><path
         fill="#ed6a69"
         d="m 623.012,722.484 c 0.684,4.227 0.011,9.562 -0.112,13.866 -0.263,7.235 -0.36,14.476 -0.293,21.717 3.752,-1.538 7.071,-3.678 10.49,-5.827 l -0.054,10.044 c -3.046,1.225 -6.033,2.592 -9.03,3.93 -0.533,7.375 -0.331,14.825 -0.301,22.217 -3.756,2.217 -7.602,3.999 -11.664,5.578 -0.195,-6.635 -0.005,-13.319 0.026,-19.958 -4.594,1.761 -8.953,3.848 -13.357,6.025 -7.899,3.833 -15.874,8.138 -24.138,11.111 2.872,-7.465 28.432,-56.008 32.133,-59.92 3.639,-3.847 11.443,-6.37 16.3,-8.783 z"
         id="path5-8"
         style="fill:#f89828;fill-opacity:1" /><path
         fill="#1f2b57"
         d="m 610.648,739.326 c 0.889,0.071 1.661,0.211 2.529,0.398 1.656,2.104 0.365,19.484 0.333,23.22 -5.445,3.356 -11.412,5.846 -16.915,9.177 -1.233,0.19 -1.079,0.415 -2.178,-0.377 -0.243,-0.718 -0.45,-1.387 -0.386,-2.159 0.367,-4.467 9.926,-22.256 12.904,-26.548 0.996,-1.435 2.391,-2.59 3.713,-3.711 z"
         id="path6-2" /><path
         fill="#1f2b57"
         d="m 673.911,688.602 c 3.052,-0.18 5.911,-0.15 8.744,1.159 4.576,2.113 7.513,6.23 9.177,10.874 5.041,14.068 3.909,35.024 -2.643,48.478 -5.692,11.52 -15.689,20.337 -27.831,24.545 -3.709,0.67 -7.069,0.644 -10.432,-1.243 -4.302,-2.414 -6.78,-6.851 -8.072,-11.47 -4.607,-16.464 -1.963,-38.633 6.488,-53.495 5.46,-9.603 13.956,-15.939 24.569,-18.848 z"
         id="path7-4" /><path
         fill="#ed6a69"
         d="m 672.139,696.589 c 1.837,-0.143 3.819,-0.365 5.622,0.133 3.142,0.868 5.598,3.942 6.957,6.75 4.815,9.952 3.924,29.759 0.299,40.056 -3.855,10.947 -11.606,17.439 -21.82,22.294 -2.351,0.629 -4.556,1.223 -6.94,0.392 -2.901,-1.012 -5.045,-3.664 -6.214,-6.414 -4.709,-11.074 -1.959,-32.949 2.546,-43.9 3.828,-9.306 10.353,-15.463 19.55,-19.311 z"
         id="path8-5"
         style="fill:#f89828;fill-opacity:1" /><path
         fill="#1f2b57"
         d="m 669.361,706.052 c 1.022,-0.005 2.445,0.115 3.386,0.543 2.119,0.963 3.136,3.148 3.836,5.234 2.756,8.212 1.727,26.894 -2.491,34.638 -2.462,4.52 -5.607,6.801 -10.449,8.274 -1.355,0.161 -2.278,0.166 -3.642,-0.107 -2.169,-1.479 -3.146,-3.39 -3.909,-5.876 -2.86,-9.319 -2.018,-25.742 2.674,-34.401 2.513,-4.637 5.628,-6.837 10.595,-8.305 z"
         id="path9-5" /><path
         fill="#ffffff"
         d="m 668.021,713.231 c 0.985,0.521 1.823,1.062 2.395,2.062 2.387,4.179 1.417,21.622 0.268,26.421 -0.786,3.28 -1.678,4.926 -4.575,6.692 -0.463,-0.399 -1.026,-0.839 -1.407,-1.329 -3.822,-4.902 -2.734,-17.886 -1.743,-23.76 0.668,-3.965 1.645,-7.659 5.062,-10.086 z"
         id="path10-1" /><path
         fill="#1f2b57"
         d="m 752.544,651.516 c 0.213,-0.008 0.425,-0.023 0.638,-0.025 0.723,-0.008 2.104,-0.029 2.577,0.617 1.677,2.288 0.752,26.683 0.722,31.048 2.409,-1.22 5.797,-3.136 8.57,-2.288 1.227,0.375 2.005,1.139 2.604,2.245 2.164,3.998 0.455,13.587 -0.791,17.85 -2.584,3.125 -6.662,4.309 -10.31,5.791 -0.012,5.956 0.846,15.144 -0.571,20.765 -0.625,2.478 -2.267,4.17 -4.466,5.398 -3.646,2.036 -12.328,6.618 -15.977,8.036 -1.049,0.408 -1.815,0.478 -2.888,0.162 -2.108,-2.225 -1.117,-16.425 -1.082,-20.24 0.011,-0.89 0,-1.083 -0.404,-1.922 -4.779,-0.259 -15.668,6.897 -20.59,9.195 -1.873,0.875 -3.377,1.581 -5.393,0.856 -0.287,-0.492 -0.377,-0.594 -0.558,-1.22 -1.467,-5.083 -0.543,-13.244 1.09,-18.197 2.284,-6.93 6.643,-13.46 10.257,-19.783 5.51,-9.641 11.153,-19.224 16.169,-29.135 6.52,-3.513 13.593,-6.238 20.403,-9.153 z"
         id="path11-7" /><path
         fill="#ed6a69"
         d="m 749.488,659.653 c 1.369,2.401 0.23,27.291 0.547,32.507 3.739,-1.044 7.409,-2.397 11.082,-3.653 l 0.27,8.299 -11.184,6.081 c -0.778,7.73 -0.651,15.637 -0.655,23.397 -3.299,2.701 -7.429,4.404 -11.257,6.225 l -0.07,-22.562 -0.341,-0.598 c -3.344,-0.252 -21.976,9.485 -26.496,11.396 -0.276,-2.818 -0.76,-6.131 -0.157,-8.898 1.674,-7.672 9.212,-17.67 13.258,-24.441 4.331,-7.179 8.506,-14.45 12.523,-21.81 3.91,-2.28 8.386,-3.969 12.48,-5.943 z"
         id="path12-1"
         style="fill:#f89828;fill-opacity:1" /><path
         fill="#1f2b57"
         d="m 738.26,672.381 c 2.464,3.229 0.912,19.887 0.849,24.805 -5.01,3.497 -10.203,6.424 -16.007,8.352 -0.538,-0.542 -0.905,-0.997 -1.087,-1.77 -1.189,-5.06 12.633,-26.787 16.245,-31.387 z"
         id="path13-1" /><path
         fill="#ffffff"
         d="m 504.462,611.621 c 1.487,2.282 0.104,230.516 0.071,251.523 -0.029,18.677 0.449,37.365 0.216,56.04 -7.739,-3.297 -15.227,-7.669 -22.763,-11.446 l -45.111,-22.221 c -2.764,-1.342 -9.426,-5.481 -12.127,-5.923 -1.477,-0.242 -1.831,0.157 -2.97,0.959 -0.81,1.445 -0.945,2.849 -0.354,4.411 0.622,1.645 2.187,2.589 3.611,3.477 6.096,3.802 13.041,6.791 19.475,10.014 19.84,9.939 40.588,18.861 59.943,29.67 l 0.054,8.838 c -7.211,-3.15 -14.194,-7.145 -21.19,-10.753 -12.937,-6.67 -25.874,-13.365 -38.908,-19.843 l -165.133,-82.06 c -6.77,-3.3 -37.62,-19.89 -42.547,-20.735 -1.54,-0.264 -2.306,0.069 -3.502,0.997 -0.362,1.118 -0.382,1.858 0.014,2.988 0.968,2.765 3.674,4.707 6.126,6.071 4.468,2.486 9.545,4.154 14.15,6.472 l 56.15,27.944 c 46.562,22.853 92.913,46.132 139.048,69.835 18.605,9.408 37.446,18.312 55.911,28.006 0.292,5.739 0.097,11.454 -0.147,17.188 -5.578,-2.733 -11.175,-5.425 -16.791,-8.079 -54.088,-26.707 -108.026,-53.716 -161.812,-81.025 -30.207,-14.751 -60.281,-29.772 -90.218,-45.064 -8.07,-4.171 -16.321,-7.999 -24.277,-12.385 l -0.709,-204.433 c 21.163,10.363 42.246,20.742 63.202,31.526 9.03,4.646 18.959,8.911 27.383,14.528 -0.588,7.11 -0.242,14.459 -0.25,21.602 l -0.051,38.505 c -0.041,33.25 -0.722,66.668 0.078,99.898 0.042,1.779 -0.104,6.458 0.903,7.884 1.126,1.594 77.643,40.33 86.28,44.245 1.652,0.749 3.478,1.507 5.282,1.731 1.026,0.127 1.209,0.206 2.051,-0.442 1.94,-7.498 1.056,-16.516 1.052,-24.239 l -0.021,-31.356 -0.006,-119.845 c 10.343,-7.66 20.243,-16.038 30.377,-23.989 l 46.058,-35.786 c 10.393,-8.202 20.526,-17.269 31.452,-24.728 z"
         id="path21-3" /><path
         fill="#1f2b57"
         d="m 237.069,786.28 c 7.502,2.901 14.751,6.975 21.98,10.508 6.102,2.982 12.897,5.721 18.627,9.338 1.376,0.868 2.606,2.32 2.732,4.004 0.164,2.178 -1.104,3.421 -2.53,4.817 -7.112,-3.124 -37.812,-17.77 -42.32,-21.559 -1.209,-1.017 -1.294,-1.886 -1.369,-3.393 0.539,-1.719 1.569,-2.531 2.88,-3.715 z"
         id="path22-2" /><path
         fill="#ffffff"
         d="m 222.194,461.926 c 10.666,3.566 21.041,10.102 31.231,14.971 12.741,6.087 25.594,11.982 38.227,18.29 l 54.941,28.091 c 33.312,16.754 66.776,33.206 100.387,49.353 17.577,8.506 35.578,16.504 52.828,25.644 -11.925,7.377 -26.129,20.357 -37.618,29.309 -23.813,18.554 -48.23,36.538 -71.463,55.815 l -3.902,2.99 C 296.231,639.216 205.296,592.701 114.027,546.847 c 10.325,-9.992 22.815,-18.481 34.094,-27.409 24.443,-19.487 49.136,-38.66 74.073,-57.512 z"
         id="path23-2" /><path
         fill="#ffffff"
         d="m 803.031,461.429 c 6.411,3.331 21.819,16.655 28.291,21.766 26.558,20.773 52.823,41.918 78.787,63.428 -38.071,20.126 -76.874,39.005 -115.403,58.241 l -92.103,46.905 c -21.943,11.237 -44.621,21.681 -66.084,33.772 l -4.689,-3.579 c -15.209,-12.09 -30.966,-23.321 -46.442,-35.047 -21.021,-15.928 -42.007,-32.282 -63.669,-47.316 7.761,-4.323 16.002,-7.942 23.996,-11.832 19.855,-9.659 39.903,-18.913 59.704,-28.687 z"
         id="path24-1" /><path
         fill="#ffffff"
         d="m 597.437,119.216 c 23.714,-0.996 47.067,6.074 66.246,20.056 19.297,14.347 31.51,36.475 34.923,60.214 1.955,13.596 2.374,28.737 -0.567,42.179 -7.123,32.544 -33.127,58.771 -59.834,76.932 -12.106,8.233 -26.575,15.232 -35.441,27.212 -9.291,12.555 -11.233,27.427 -9.066,42.549 -21.455,2.059 -41.211,10.46 -60.919,18.575 -0.037,-0.18 -0.075,-0.359 -0.109,-0.54 l -0.168,-0.901 c -1.352,-7.089 -1.258,-14.431 -1.189,-21.627 0.331,-34.912 13.507,-62.369 38.106,-86.489 5.742,-5.072 11.578,-9.987 17.987,-14.214 8.57,-5.651 17.547,-10.335 25.363,-17.112 9.858,-8.547 17.97,-20.332 18.878,-33.695 0.676,-9.944 -2.115,-19.061 -8.736,-26.574 -7.451,-8.456 -17.957,-13.046 -29.133,-13.668 -14.608,-0.813 -30.16,4.748 -40.99,14.551 -14.063,12.728 -19.266,27.818 -20.26,46.306 -21.013,7.795 -45.944,16.699 -67.481,22.748 -0.587,-40.835 12.01,-80.283 39.551,-110.913 24.457,-27.201 56.224,-43.643 92.839,-45.589 z"
         id="path25-6" /><path
         fill="#1f2b57"
         d="m 656.894,156.078 c 0.584,0.154 1.176,0.315 1.731,0.558 1.003,0.438 1.917,1.41 2.206,2.478 0.454,1.677 -0.581,3.72 -1.371,5.143 -1.775,3.196 -10.631,15.588 -13.752,16.446 -1.404,-0.79 -3.064,-1.726 -4.049,-3.038 -0.406,-0.542 -0.862,-1.407 -0.662,-2.076 0.928,-3.106 12.927,-18.009 15.897,-19.511 z"
         id="path26-8" /><path
         fill="#1f2b57"
         d="m 627.908,148.975 c 0.955,-0.076 1.937,-0.171 2.895,-0.126 1.25,0.059 2.459,0.577 3.208,1.609 3.161,4.352 -0.221,19.305 -1.454,24.509 -0.985,0.354 -2.559,0.85 -3.636,0.537 -1.304,-0.379 -1.957,-0.925 -2.594,-2.115 -2.003,-3.745 0.21,-20.362 1.581,-24.414 z"
         id="path27-5" /><path
         fill="#1f2b57"
         d="m 672.44,175.464 c 0.605,-0.015 1.457,-0.092 2.069,0.043 1.106,0.244 2.465,1.266 2.904,2.367 0.33,0.828 0.363,1.305 0.065,2.124 -1.683,4.634 -14.594,10.715 -19.131,12.686 -1.528,0.167 -2.419,0.257 -3.86,-0.446 -0.729,-0.982 -1.233,-1.455 -1.055,-2.774 0.561,-4.179 15.059,-11.654 19.008,-14 z"
         id="path28-7" /><path
         fill="#1f2b57"
         d="m 677.47,200.706 c 1.246,-0.168 2.846,-0.483 4.035,0.024 1.083,0.461 2.191,1.659 2.576,2.77 0.337,0.972 0.221,2.008 -0.422,2.821 -2.244,2.834 -11.757,2.513 -15.178,2.763 -1.047,0.154 -2.342,0.431 -3.389,0.247 -1.434,-0.251 -3.483,-2.136 -3.999,-3.479 -0.479,-1.248 -0.175,-1.519 0.428,-2.59 3.767,-2.725 11.38,-2.161 15.949,-2.556 z"
         id="path29-6" /><path
         fill="#ffffff"
         d="m 675.278,298.849 c 6.491,2.043 12.971,5.826 19.137,8.764 l 45.049,21.972 c 62.514,30.395 124.72,61.418 186.61,93.062 -6.749,2.102 -14.462,2.983 -21.419,4.357 -18.103,3.573 -36.322,6.728 -54.333,10.733 -15.807,3.055 -31.545,6.388 -47.407,9.164 -15.128,-8.232 -31.011,-15.485 -46.494,-23.05 -38.277,-18.702 -76.939,-36.669 -115.065,-55.663 -10.639,-5.3 -22.1,-9.612 -32.437,-15.405 5.834,-10.623 17.364,-16.23 27.173,-22.559 6.553,-4.228 12.978,-8.651 19.267,-13.263 7.226,-5.388 13.544,-11.771 19.919,-18.112 z"
         id="path30-1" /><path
         fill="#ffffff"
         d="m 499.829,325.494 c 0.91,2.813 -6.397,22.786 -7.589,27.873 -3.052,13.021 -4.916,26.878 -4.762,40.243 3.198,2.743 6.841,5.072 10.286,7.499 -14.537,5.844 -28.473,13.513 -42.599,20.309 l -101,49.279 c -13.74,6.601 -27.41,14.898 -41.776,19.943 -14.391,-6.603 -28.572,-13.795 -42.737,-20.874 -10.627,-4.889 -20.798,-10.836 -31.353,-15.917 11.917,-6.702 24.638,-12.215 36.9,-18.272 l 75.155,-37.112 94.881,-46.774 c 18.102,-8.86 36.159,-18.061 54.594,-26.197 z"
         id="path31-8" /><path
         fill="#ed6a69"
         d="m 309.454,662.096 c 16.509,8.292 32.954,16.713 49.333,25.262 9.555,5.008 19.195,11.017 29.202,14.93 l 0.085,111.484 c 0.034,9.807 0.149,19.613 0.345,29.418 0.111,6.175 0.582,12.753 -0.174,18.875 -25.989,-14.302 -52.407,-27.809 -79.218,-40.503 0.4,-53.145 -0.631,-106.341 0.427,-159.466 z"
         id="path32-9"
         style="fill:#f89828;fill-opacity:1" /><path
         fill="#ffffff"
         d="m 504.003,406.929 c 1.827,0.142 19.334,11.062 23.015,12.797 -3.061,0.714 -6.192,1.404 -9.173,2.404 -12.784,4.284 -23.861,14.397 -29.776,26.474 -5.07,10.351 -6.253,22.082 -2.535,33.018 -18.036,8.586 -36.189,17.101 -54.085,25.968 -14.383,7.126 -29.02,15.198 -44.043,20.831 -8.832,-4.174 -17.509,-8.74 -26.235,-13.134 -12.072,-6.233 -26.956,-12.58 -38.217,-19.402 15.243,-8.592 31.579,-15.7 47.268,-23.465 l 99.971,-49.48 c 11.18,-5.502 22.74,-10.337 33.81,-16.011 z"
         id="path33-2" /><path
         fill="#ffffff"
         d="m 487.506,489.973 c 1.55,1.006 8.288,10.965 11.159,13.709 6.893,6.592 15.962,10.503 24.001,15.454 6.367,3.921 11.879,8.847 18.945,11.583 12.612,4.884 24.903,0.899 36.705,-4.255 9.971,5.754 20.655,10.221 30.745,15.805 -7.914,3.281 -15.549,7.468 -23.307,11.125 l -48.41,22.584 c -8.894,4.117 -17.769,8.909 -27.121,11.879 -6.166,-2.297 -11.94,-5.561 -17.843,-8.447 -9.216,-4.413 -18.398,-8.894 -27.546,-13.445 11.027,-5.815 47.475,-20.319 54.339,-26.734 0.399,-1.015 0.464,-2.376 0.057,-3.419 -0.463,-1.183 -1.039,-1.836 -2.231,-2.317 -1.07,-0.432 -2.075,-0.177 -3.104,0.193 -6.802,2.44 -13.605,6.376 -20.147,9.498 l -39.186,18.594 c -8.317,-5.288 -17.614,-9.17 -26.466,-13.459 -10.076,-4.951 -20.079,-10.049 -30.005,-15.295 9.817,-5.407 20.67,-9.713 30.795,-14.629 19.442,-9.675 38.983,-19.15 58.62,-28.424 z"
         id="path34-7" /><path
         fill="#ffffff"
         d="m 602.33,365.607 c 6.091,2.108 12.199,5.71 18.103,8.432 17.096,7.979 34.138,16.075 51.124,24.285 l 71.798,34.627 c 14.498,7.025 29.489,13.676 43.503,21.603 -11.857,5.76 -23.566,11.733 -35.536,17.269 -5.304,2.685 -10.643,5.388 -16.178,7.566 -39.165,-20.476 -79.345,-39.173 -118.9,-58.898 -8.286,-4.163 -16.595,-8.278 -24.929,-12.344 -5.3,-2.541 -10.92,-4.768 -15.964,-7.768 4.943,-1.259 24.119,-3.611 26.737,-5.538 0.868,-0.639 1.324,-1.117 1.435,-2.201 0.251,-2.473 -0.945,-6.127 -1.336,-8.634 -0.966,-6.182 -0.904,-12.237 0.143,-18.399 z"
         id="path35-9" /><path
         fill="#ffffff"
         d="m 562.793,404.483 c 0.824,-0.199 1.159,-0.149 1.978,0.145 4.551,1.631 9.166,4.586 13.518,6.749 l 26.95,13.188 85.672,42.11 c 12.061,5.883 23.837,12.41 36.161,17.736 -9.053,4.546 -18.416,8.65 -27.553,13.056 l -26.004,12.594 c -12.711,-6.889 -25.818,-12.945 -38.849,-19.195 -10.022,-4.807 -19.937,-9.832 -29.994,-14.566 -0.515,-4.337 -1.2,-8.7 -2.611,-12.847 -3.789,-11.137 -12.03,-19.519 -22.504,-24.668 -4.079,-2.005 -8.428,-3.474 -12.559,-5.379 -6.99,-3.223 -13.799,-7.091 -20.706,-10.52 1.299,-4.444 2.5,-8.853 3.479,-13.382 4.234,-1.998 8.605,-3.493 13.022,-5.021 z"
         id="path36-5" /><path
         fill="#ed6a69"
         d="m 597.84,200.791 c 5.145,0.681 10.798,3.846 14.891,6.983 5.938,4.55 9.493,10.545 10.383,17.991 3.4,28.443 -29.546,42.573 -48.374,56.246 -9.561,6.833 -18.099,14.994 -25.355,24.238 -22.465,29.112 -30.157,65.853 -25.493,101.932 l -5.028,-2.853 c -7.665,-5.121 -16.779,-10.2 -23.263,-16.712 0.143,-10.004 2.247,-20.52 4.345,-30.287 6.356,-29.576 21.086,-60.872 45.202,-80.123 8.997,-7.181 19.494,-12.472 29.146,-18.72 12.369,-8.008 26.851,-20.214 29.84,-35.517 1.801,-9.225 -1.304,-15.752 -6.294,-23.178 z"
         id="path37-4"
         style="fill:#f89828;fill-opacity:1" /><path
         fill="#ed6a69"
         d="m 569.054,101.21 c 15.414,-1.6361 33.479,4.28 47.418,10.484 -1.204,-0.17 -2.411,-0.32 -3.62,-0.45 -34.013,-3.799 -69.298,8.721 -95.709,29.933 -33.705,27.359 -55.125,67.015 -59.525,110.202 -0.494,7.811 -0.72,15.636 -0.676,23.463 -8.078,-3.917 -15.898,-9.725 -23.441,-14.635 0.77,-36.295 15.959,-77.757 39.352,-105.689 24.884,-29.714 57.012,-49.968 96.201,-53.308 z"
         id="path38-3"
         style="fill:#f89828;fill-opacity:1" /><path
         fill="#ffffff"
         d="m 558.113,444.137 c 7.369,-0.8 14.811,0.316 21.223,4.198 7.85,4.754 13.064,12.269 15.183,21.152 2.856,11.973 0.273,25.313 -6.196,35.697 -6.577,10.556 -16.215,16.157 -28.136,18.973 -8.148,0.9 -16.264,-1.019 -23.022,-5.731 -7.772,-5.42 -12.959,-14.53 -14.573,-23.784 -1.979,-11.349 0.871,-24 7.526,-33.391 6.793,-9.585 16.516,-15.13 27.995,-17.114 z"
         id="path39-1" /><path
         fill="#ffffff"
         d="m 604.206,484.93 c 19.828,10.22 40.263,19.297 59.923,29.802 -8.643,4.852 -17.958,8.917 -26.879,13.273 l -18.783,9.197 c -10.525,-5.309 -21.291,-10.174 -31.824,-15.504 9.704,-11.069 15.364,-22.232 17.563,-36.768 z"
         id="path40-2" /><path
         fill="#ed6a69"
         d="m 526.532,428.62 c 10.49,-0.746 18.233,2.823 27.629,6.894 -14.166,4.53 -24.328,10.066 -32.392,23.018 -7.768,12.379 -10.228,27.362 -6.828,41.575 0.572,2.02 1.339,4.001 2.034,5.982 -1.422,-0.837 -2.829,-1.701 -4.22,-2.59 -9.574,-6.152 -17.633,-15.019 -20.056,-26.437 -2.215,-10.438 0.79,-21.514 6.609,-30.274 6.488,-9.766 15.788,-15.805 27.224,-18.168 z"
         id="path41-3"
         style="fill:#f89828;fill-opacity:1" /><path
         fill="#1f2b57"
         d="m 619.38433,-19.120606 c 0.17414,-0.104614 0.34253,-0.219642 0.52333,-0.314223 1.1416,-0.597057 2.00787,-0.684623 3.22924,-0.254021 1.12063,0.394879 1.84405,1.430327 2.26468,2.517156 0.41861,1.083151 -0.0434,2.524146 -0.31653,3.582717 -2.86633,11.1132406 -6.75948,21.9708126 -10.01084,32.975802 -2.11809,7.172245 -8.54464,32.340009 -11.47221,37.329988 -1.19107,0.401563 -2.76297,0.82683 -4.00974,0.370833 -1.12097,-0.409993 -1.68578,-1.037322 -2.05615,-2.175927 -0.88573,-2.724812 18.69094,-68.34643 21.84822,-74.032327 z"
         id="path46-3" /><path
         fill="#1f2b57"
         d="m 752.55284,245.49906 c 4.411,0.203 62.438,18.392 65.027,20.539 0.909,0.754 1.383,1.834 1.3,3.022 -0.103,1.473 -1.354,2.557 -2.337,3.518 -5.674,-0.549 -59.931,-17.25 -64.958,-20.16 -0.546,-0.732 -1.131,-1.394 -1.218,-2.346 -0.177,-1.929 0.944,-3.296 2.186,-4.573 z"
         id="path47-8" /><path
         fill="#1f2b57"
         d="m 387.33037,28.000735 c -1.60106,0.479916 -2.79348,0.809795 -3.95248,2.103215 -0.36574,1.217123 -0.62689,1.681886 -0.11655,2.922287 1.4239,3.462757 30.82028,41.501633 34.58767,45.393946 0.66005,0.681887 1.38812,0.96798 2.25677,1.301652 1.04797,-0.547908 2.28152,-1.123318 3.07151,-2.028275 0.76614,-0.878067 1.29945,-1.880465 1.09202,-3.094704 -0.5932,-3.472362 -32.8416,-43.822763 -36.93894,-46.598121 z"
         id="path50" /><path
         fill="#1f2b57"
         d="m 788.12068,91.821091 1.88961,-0.64212 c 1.18797,0.24784 1.91709,0.55862 2.76657,1.52089 1.07543,1.21883 1.4602,2.5294 1.4198,4.18736 -0.28286,0.78709 -0.57218,1.31429 -1.22712,1.82193 -4.2148,3.262059 -9.98389,5.676199 -14.68097,8.187489 -11.40368,6.09709 -22.84772,12.21926 -34.48851,17.79453 -0.14284,0.0626 -0.28179,0.13542 -0.42853,0.18788 -1.58362,0.56293 -2.73295,0.55928 -4.18448,-0.28641 -0.98572,-1.44599 -1.26174,-2.14701 -1.4643,-3.91732 0.5092,-1.55319 0.8812,-2.1118 2.14743,-3.08276 5.38807,-4.13012 12.67642,-7.02911 18.67076,-10.13956 z"
         id="path51"
         style="stroke-width:1.06168" /><path
         fill="#1f2b57"
         d="m 334.836,231.087 c -0.479,1.145 1.692,-4.044 0,0 z"
         id="path62" /></g></g></svg>
