<?xml version="1.0" encoding="UTF-8" standalone="no"?>
<svg
   width="1024"
   height="1024"
   viewBox="0 0 1024 1024"
   version="1.1"
   id="svg47"
   xmlns="http://www.w3.org/2000/svg"
   xmlns:svg="http://www.w3.org/2000/svg">
  <defs
     id="defs47" />
  <path
     fill="#6e526b"
     d="m 592.21,58.225 c 7.931,-0.205 15.943,0.0589 23.867,0.4412 48.664,2.3482 107.862,18.1247 149.637,43.6678 25.743,15.74 48.607,36.431 68.809,58.731 58.499,64.575 95.128,160.296 90.681,247.592 -2.714,51.143 -18.973,100.645 -47.11,143.438 -5.15,7.995 -11.173,18.454 -18.369,24.658 -5.399,4.655 -24.024,10.713 -31.251,13.403 -16.096,5.992 -32.477,10.574 -49.045,15.038 -51.138,13.78 -99.183,21.406 -151.779,26.728 -37.993,3.844 -76.495,6.551 -114.658,4.094 27.436,19.014 54.379,38.666 81.56,58.032 10.946,7.8 21.933,15.373 32.689,23.453 4.287,3.221 9.345,6.397 12.861,10.451 -4.847,13.327 -11.092,26.202 -17.089,39.04 -5.238,11.35 -10.412,22.729 -15.523,34.137 l -58.752,132.718 c -2.317,5.238 -16.286,38.612 -18.391,40.045 -2.361,1.609 -4.723,1.226 -7.391,0.866 -13.569,-1.834 -31.271,-7.169 -44.913,-10.489 l -78.646,-18.806 -38.49,-9.086 c -7.117,-1.688 -15.316,-2.802 -21.921,-5.898 -5.686,-2.667 -11.223,-6.898 -16.485,-10.382 l -32.46,-21.665 -95.312,-63.834 c -14.455,-9.53 -28.774,-19.264 -42.954,-29.198 -7.38,-5.134 -16.262,-10.138 -22.304,-16.818 2.222,-7.621 6.802,-15.496 10.043,-22.785 l 25.088,-55.636 c 16.488,-36.94 33.211,-73.774 50.168,-110.501 l 15.803,-34.721 c 3.107,-6.798 5.93,-14.186 9.969,-20.469 0.911,-1.417 1.287,-2.07 3.004,-2.394 3.954,-0.747 21.201,3.641 26.476,4.656 40.413,8.186 80.78,16.6 121.098,25.241 7.98,1.65 15.981,3.199 23.999,4.649 5.48,0.949 11.85,1.279 17.031,3.26 7.772,2.971 15.3,9.716 22.081,14.495 6.289,4.423 12.676,8.704 19.157,12.84 -21.491,-26.487 -40.075,-59.983 -56.083,-90.097 -46.768,-87.976 -89.059,-189.224 -99.797,-288.969 -1.14,-10.598 -2.361,-21.205 -2.645,-31.868 -0.088,-3.266 -0.169,-6.674 0.843,-9.822 2.55,-7.934 12.193,-16.388 17.876,-22.369 14.349,-15.103 31.219,-28.361 48.375,-40.115 C 444.993,80.7842 516.139,60.1165 592.21,58.225 Z"
     id="path2" />
  <path
     fill="#fcf0e1"
     d="m 431.983,592.217 c 9.624,5.69 18.78,12.833 27.916,19.287 l 55.969,39.815 73.856,52.227 c 12.515,8.897 25.791,17.243 37.511,27.169 -2.937,6.18 -5.204,12.743 -7.996,19.008 l -87.32,196.389 c -1.674,3.673 -5.833,14.79 -8.401,16.76 l -1.656,-0.794 c -8.334,-5.004 -16.322,-10.859 -24.384,-16.3 l -56.181,-38.635 c -38.763,-26.764 -78.007,-52.89 -116.582,-79.912 6.549,-12.991 11.967,-26.651 17.871,-39.952 l 26.218,-58.059 c 10.062,-22.082 20.253,-44.104 30.573,-66.067 10.728,-23.709 21.597,-47.355 32.606,-70.936 z"
     id="path3" />
  <path
     fill="#6e526b"
     d="m 496.081,687.663 c 8.91,-1.281 18.903,0.362 27.175,3.773 13.258,5.466 23.965,16.574 29.408,29.771 5.629,13.546 5.585,28.785 -0.122,42.299 -2.847,6.63 -6.946,12.38 -11.944,17.562 -14.195,14.716 -25.972,15.417 -43.928,22.705 -2.088,5.372 -5.114,10.733 -10.24,13.725 -4.046,2.362 -8.963,2.728 -13.414,1.371 -4.238,-1.299 -7.787,-4.227 -9.866,-8.142 -2.858,-5.419 -2.144,-10.98 -0.31,-16.561 13.131,-28.882 45.254,-20.851 57.394,-38.04 3.765,-5.331 4.95,-11.749 3.852,-18.128 -1.126,-6.538 -4.349,-12.632 -9.94,-16.416 -2.987,-2.021 -6.393,-2.95 -9.991,-2.69 -14.612,1.056 -18.043,16.644 -30.6,19.048 -4.347,0.832 -8.488,-0.028 -12.13,-2.552 -3.268,-2.227 -5.484,-5.692 -6.134,-9.593 -1.041,-6.098 1.904,-12.473 5.443,-17.307 8.552,-11.682 21.198,-18.648 35.347,-20.825 z"
     id="path4" />
  <path
     fill="#F2B2B2"
     d="m 499.128,696.682 c 1.135,-0.153 2.265,-0.154 3.409,-0.154 11.768,-0.003 22.737,4.956 30.996,13.243 8.615,8.645 14.013,20.066 13.937,32.383 -0.126,20.341 -14.188,38.593 -32.829,45.808 -7.871,3.046 -16.897,4.113 -24.02,8.858 -4.031,2.684 -3.804,8.664 -7.328,11.814 -1.5,1.34 -4.238,2.65 -6.31,2.27 -1.74,-0.319 -2.981,-1.193 -4.033,-2.6 -1.831,-2.45 -2.333,-5.732 -1.858,-8.702 1.087,-6.792 7.271,-11.326 12.452,-15.118 14.824,-8.136 35.254,-8.35 45.112,-23.813 5.004,-7.85 5.969,-17.602 3.925,-26.566 -1.861,-8.163 -6.852,-16.483 -14.148,-20.867 -9.421,-5.66 -24.28,-3.446 -32.827,3.19 -4.909,3.811 -7.319,10.733 -13.944,12.115 -1.81,0.378 -3.668,0.241 -5.157,-0.963 -1.127,-0.912 -1.754,-2.324 -1.985,-3.728 -0.561,-3.414 1.056,-6.858 3.103,-9.486 8.006,-10.28 18.728,-15.992 31.505,-17.684 z"
     id="path5"
     style="fill:#f89828;fill-opacity:1" />
  <path
     fill="#6e526b"
     d="m 455.168,828.511 c 9.944,-1.389 19.133,5.543 20.527,15.487 1.394,9.943 -5.534,19.135 -15.477,20.533 -9.949,1.399 -19.148,-5.534 -20.542,-15.484 -1.395,-9.949 5.542,-19.145 15.492,-20.536 z"
     id="path6" />
  <path
     fill="#F2B2B2"
     d="m 454.92,837.898 c 3.157,-0.911 6.561,-0.052 8.907,2.249 2.347,2.3 3.273,5.686 2.424,8.861 -0.849,3.174 -3.342,5.646 -6.523,6.468 -4.825,1.248 -9.756,-1.612 -11.071,-6.418 -1.315,-4.807 1.475,-9.778 6.263,-11.16 z"
     id="path7"
     style="fill:#f89828;fill-opacity:1" />
  <path
     fill="#F2B2B2"
     d="m 767.32,116.866 2.524,5.407 c 30.93,82.294 17.471,177.488 -18.314,256.07 -4.15,9.114 -8.791,18.476 -13.978,27.034 -12.925,-31.689 -32.39,-60.794 -61.553,-79.779 -10.271,-6.686 -21.508,-11.919 -32.794,-16.634 -3.258,-1.361 -7.662,-3.27 -11.159,-3.542 -11.834,-3.227 -20.501,-4.342 -32.775,-3.303 3.555,-8.288 12.726,-20.467 17.889,-28.319 33.324,-50.681 74.491,-100.095 122.444,-137.511 8.939,-6.975 17.872,-13.755 27.716,-19.423 z"
     id="path8"
     style="fill:#f89828;fill-opacity:1" />
  <path
     fill="#fefcfb"
     d="m 767.32,116.866 2.524,5.407 c -6.674,4.206 -11.975,11.876 -17.326,17.717 -34.177,36.796 -64.943,76.619 -91.92,118.978 -7.184,11.262 -13.644,22.974 -20.652,34.35 -2.424,3.934 -4.806,8.682 -7.9,12.104 -11.834,-3.227 -20.501,-4.342 -32.775,-3.303 3.555,-8.288 12.726,-20.467 17.889,-28.319 33.324,-50.681 74.491,-100.095 122.444,-137.511 8.939,-6.975 17.872,-13.755 27.716,-19.423 z"
     id="path9" />
  <path
     fill="#fefcfb"
     d="m 696.761,110.715 c 19.682,-1.387 45.004,-0.054 64.465,3.402 -11.752,8.528 -23.456,16.59 -34.654,25.922 -52.427,43.69 -94.652,98.558 -130.523,156.253 -3.233,-5.325 -5.754,-11.13 -8.804,-16.576 -7.644,-13.648 -17.766,-24.1 -30.022,-33.686 -24.319,-18.124 -56.267,-28.881 -86.676,-27.148 -8.421,0.48 -16.36,3.076 -24.682,3.748 l -0.685,0.051 c 0.289,-0.351 0.575,-0.705 0.877,-1.046 12.467,-14.072 29.398,-27.566 44.657,-38.633 61.903,-44.898 129.804,-68.453 206.047,-72.287 z"
     id="path10" />
  <path
     fill="#F2B2B2"
     d="m 331.027,180.236 c 5.278,-6.095 11.494,-11.597 17.353,-17.124 38.761,-36.561 85.522,-62.378 136.175,-78.4213 11.894,-3.7676 23.84,-6.433 36.053,-8.917 69.153,-14.064 140.179,-8.893 205.422,18.5308 7.16,3.0097 14.501,5.8505 21.398,9.4295 1.756,0.803 3.079,1.86 4.57,3.077 -20.528,-2.869 -40.232,-3.039 -60.902,-1.944 -76.964,4.074 -148.989,32.006 -210.377,78.419 -13.884,10.497 -25.827,22.199 -37.862,34.712 -13.008,-17.026 -25.587,-26.658 -45.69,-34.185 -7.628,-2.856 -15.533,-5.18 -23.628,-6.231 -3.401,-0.418 -6.821,-0.662 -10.246,-0.73 -4.25,0.433 -8.572,0.243 -12.85,0.701 -6.5,0.698 -12.899,2.083 -19.416,2.683 z"
     id="path11"
     style="fill:#f89828;fill-opacity:1" />
  <path
     fill="#fefcfb"
     d="m 331.027,180.236 c 5.278,-6.095 11.494,-11.597 17.353,-17.124 38.761,-36.561 85.522,-62.378 136.175,-78.4213 11.894,-3.7676 23.84,-6.433 36.053,-8.917 69.153,-14.064 140.179,-8.893 205.422,18.5308 7.16,3.0097 14.501,5.8505 21.398,9.4295 -0.346,0.098 -0.678,0.312 -1.037,0.293 -3.286,-0.175 -16.969,-5.0706 -21.208,-6.2819 -5.927,-1.6934 -11.999,-2.9727 -18.021,-4.27 C 683.448,88.516 659.285,86.03 635.058,86.0573 566.656,86.3651 499.183,101.924 437.552,131.6 c -11.188,5.363 -22.049,11.539 -32.888,17.575 -6.342,3.533 -12.371,7.522 -18.33,11.666 -5.41,3.763 -17.465,14.627 -23.041,16.011 -4.25,0.433 -8.572,0.243 -12.85,0.701 -6.5,0.698 -12.899,2.083 -19.416,2.683 z"
     id="path12" />
  <path
     fill="#fefcfb"
     d="m 715.438,453.722 c 2.815,1.407 5.682,4.949 7.924,7.198 14.144,14.196 27.366,30.036 36.157,48.16 2.96,6.103 3.914,12.541 6.068,18.878 2.464,3.06 26.58,3.916 31.744,5.002 19.948,4.195 37.212,16.922 48.3,33.868 -15.08,5.791 -30.558,10.525 -46.023,15.156 -38.982,11.779 -78.752,20.774 -119.009,26.916 -15.594,2.393 -31.314,4.098 -46.981,5.933 -41.646,4.467 -83.06,5.55 -124.865,6.685 19.548,-7.85 38.243,-20.677 55.552,-32.578 55.832,-38.384 108.241,-82.521 151.133,-135.218 z"
     id="path13" />
  <path
     fill="#fefcfb"
     d="m 575.367,373.962 c 35.261,5.202 78.014,29.823 106.279,50.836 7.664,5.697 14.757,12.151 22.132,18.215 -26.655,29.939 -55.092,59.012 -85.674,84.952 -12.318,10.448 -25.354,20.224 -38.366,29.788 -18.442,13.828 -37.324,26.643 -56.592,39.274 -6.86,4.497 -13.378,9.568 -20.487,13.662 13.121,-55.637 30.281,-110.249 47.875,-164.595 5.025,-15.839 10.248,-31.615 15.669,-47.323 2.845,-8.256 5.438,-16.922 9.164,-24.809 z"
     id="path14" />
  <path
     fill="#fefcfb"
     d="m 446.878,276.09 c 2.398,0.318 4.776,0.772 7.123,1.36 34.973,8.563 69.918,26.212 93.483,54.067 6.508,7.693 11.596,16.179 16.786,24.774 -13.501,33.713 -25.654,67.95 -36.43,102.63 -9.112,28.731 -17.805,57.876 -24.665,87.227 -5.378,20.096 -8.793,41.103 -11.624,61.705 -2.471,-16.207 -7.461,-32.069 -11.194,-48.008 -2.739,-11.693 -4.893,-23.57 -7.345,-35.332 -2.307,-11.065 -4.919,-22.071 -7.179,-33.143 -3.959,-19.4 -6.462,-39.336 -9.075,-58.964 -6.845,-51.409 -11.642,-104.425 -9.88,-156.316 z"
     id="path15" />
  <path
     fill="#fefcfb"
     d="m 775.452,122.496 c 6.696,4.7 12.145,13.311 16.952,19.871 28.163,38.775 48.236,82.82 59.022,129.514 17.432,76.183 1.101,147.619 -39.991,213.146 -1.376,-0.383 -2.719,-0.824 -4.071,-1.285 l -0.238,-0.858 c 0.736,-6.857 1.179,-13.775 0.568,-20.66 -1.237,-13.952 -8.625,-26.765 -19.37,-35.618 -15.548,-12.813 -28.654,-15.436 -48.168,-13.557 2.687,-6.783 6.851,-13.19 10.195,-19.688 4.654,-9.042 8.791,-18.454 12.611,-27.876 24.952,-61.559 38.054,-134.088 25.174,-199.975 -1.768,-9.042 -4.333,-18.248 -7.278,-26.98 -1.74,-5.159 -3.949,-10.289 -5.291,-15.562 z"
     id="path16" />
  <path
     fill="#fefcfb"
     d="m 331.652,199.483 c 12.317,0.845 25.06,3.02 36.738,7.046 23.632,8.147 40.904,22.936 51.358,45.669 2.386,5.189 3.194,11.54 5.846,16.432 1,1.845 3.531,2.161 5.422,2.651 -1.558,63.546 1.667,126.524 12.708,189.221 7.373,41.867 18.073,82.77 29.471,123.687 -0.131,-0.097 -0.273,-0.181 -0.393,-0.291 -2.387,-2.191 -29.582,-52.669 -32.926,-59.229 C 430.994,507.243 421.64,490.04 413.169,472.406 377.627,398.42 348.053,320.16 335.604,238.681 c -1.98,-12.963 -2.622,-26.154 -3.952,-39.198 z"
     id="path17" />
  <path
     fill="#F2B2B2"
     d="m 793.196,135.374 c 0.557,0.2 0.743,0.243 1.314,0.589 7.411,4.49 16.034,14.618 22.295,20.943 48.794,49.294 81.817,117.482 93.936,185.496 13.282,73.48 -3.307,149.222 -46.085,210.424 -0.476,0.598 -1.036,1.155 -1.553,1.715 -0.859,-0.655 -0.54,-4.125 -0.646,-5.436 -0.634,-7.838 -3.382,-15.559 -6.592,-22.682 -8.184,-18.157 -21.804,-31.839 -40.472,-38.979 27.404,-40.838 44.569,-87.265 47.954,-136.479 3.89,-56.563 -10.692,-112.692 -36.087,-162.967 -9.351,-18.512 -20.409,-36.933 -34.064,-52.624 z"
     id="path18"
     style="fill:#f89828;fill-opacity:1" />
  <path
     fill="#fcf0e1"
     d="m 387.464,582.746 c 11.184,1.52 22.404,4.371 33.519,6.468 -12.756,30.463 -27.597,60.312 -41.494,90.287 -21.857,47.522 -43.152,95.301 -63.881,143.326 -16.087,-4.513 -32.664,-7.561 -48.889,-11.586 l -16.703,-3.712 c 4.239,-12.635 11.144,-26.121 16.39,-38.566 11.815,-28.034 23.708,-55.658 37.335,-82.89 4.891,-9.774 9.48,-20.248 15.614,-29.29 2.106,6.558 4.838,22.312 9.006,27.138 0.961,1.112 1.562,1.225 2.977,1.409 2.301,-0.904 3.357,-2.821 4.525,-4.949 2.617,-4.767 4.6,-9.963 6.991,-14.863 6.018,-12.175 12.179,-24.279 18.483,-36.31 8.197,-15.275 18.976,-31.055 26.127,-46.462 z"
     id="path19" />
  <path
     fill="#fcf0e1"
     d="m 160.13,798.965 c 6.585,-0.083 15.892,3.034 22.445,4.55 12.47,2.909 24.955,5.746 37.457,8.513 l 61.651,13.732 c 9.769,2.161 22.928,3.969 32.001,7.75 8.98,3.743 23.128,15.704 32.029,21.54 50.852,33.339 100.37,68.625 150.877,102.493 -6.2,-0.68 -12.805,-2.825 -18.895,-4.29 l -43.147,-10.56 -59.132,-14.167 c -9.332,-2.162 -23.73,-3.739 -31.932,-7.618 -4.408,-2.085 -8.547,-5.572 -12.641,-8.246 l -35.266,-23.407 z"
     id="path20" />
  <path
     fill="#fcf0e1"
     d="m 247.549,553.775 c 15.916,2.04 31.904,5.468 47.466,9.365 -1.061,2.157 -2.25,4.225 -3.446,6.308 -7.948,15.437 -16.024,30.784 -23.593,46.414 -11.983,25.023 -23.508,50.263 -34.57,75.706 -13.777,31.176 -31.487,70.884 -37.749,104.096 -17.349,-4.396 -35.002,-8.799 -52.705,-11.484 l 56.416,-125.04 18.341,-40.703 c 3.158,-7.093 5.96,-15.471 10.01,-22.032 2.059,-7.636 15.744,-35.348 19.83,-42.63 z"
     id="path21" />
  <path
     fill="#fefcfb"
     d="m 247.549,553.775 c 15.916,2.04 31.904,5.468 47.466,9.365 -1.061,2.157 -2.25,4.225 -3.446,6.308 -14.131,-0.086 -28.276,0.592 -42.382,0.482 -4.482,8.897 -18.014,33.041 -24.978,38.66 1.098,-3.513 4,-8.588 3.51,-12.185 2.059,-7.636 15.744,-35.348 19.83,-42.63 z"
     id="path22" />
  <path
     fill="#F2B2B2"
     d="m 300.329,564.247 c 8.661,1.554 17.284,3.308 25.864,5.26 3.663,0.806 7.776,1.367 11.259,2.738 -0.106,1.196 -0.627,1.708 -1.371,2.611 -16.028,24.246 -30.658,48.903 -41.925,75.758 -1.708,4.071 -4.456,9.119 -4.662,13.57 -0.074,1.593 0.326,2.381 1.413,3.492 4.864,1.182 15.064,-5.767 19.679,-7.976 -4.041,8.979 -9.065,17.598 -13.374,26.47 -7.991,16.749 -15.749,33.61 -23.27,50.575 -10.264,22.898 -18.663,46.626 -28.835,69.541 -14.741,-3.591 -29.557,-6.864 -44.438,-9.818 8.509,-37.156 26.173,-76.78 41.625,-111.579 17.329,-39.028 34.64,-76.326 54.484,-114.212 1.095,-2.217 2.172,-4.368 3.551,-6.43 z"
     id="path23"
     style="fill:#f89828;fill-opacity:1" />
  <path
     fill="#fefcfb"
     d="m 300.329,564.247 c 8.661,1.554 17.284,3.308 25.864,5.26 3.663,0.806 7.776,1.367 11.259,2.738 -0.106,1.196 -0.627,1.708 -1.371,2.611 -4.411,-0.599 -9.029,-0.465 -13.487,-0.899 -8.615,-0.838 -17.23,-2.169 -25.816,-3.28 1.095,-2.217 2.172,-4.368 3.551,-6.43 z"
     id="path24" />
  <path
     fill="#F2B2B2"
     d="m 600.566,312.031 c 17.669,-0.827 34.462,3.666 50.378,11.216 38.532,18.277 63.748,49.192 77.96,88.798 -2.69,3.746 -15.122,21.767 -18.609,23.046 l -1.339,-0.941 c -4.56,-4.271 -9.745,-8.126 -14.616,-12.041 -33.965,-27.304 -73.19,-48.216 -115.975,-57.508 7.405,-17.347 16.331,-34.671 22.201,-52.57 z"
     id="path25"
     style="fill:#f89828;fill-opacity:1" />
  <path
     fill="#F2B2B2"
     d="m 469.022,228.71 c 19.8,-2.373 44.49,4.585 62.098,13.226 25.179,12.355 46.997,33.956 56.2,60.887 -3.441,5.855 -15.766,39.028 -18.567,40.727 l -0.751,-0.408 c -1.182,-1.955 -2.386,-3.895 -3.613,-5.822 -25.201,-39.371 -72.09,-62.211 -116.491,-72.032 0.842,-11.506 1.979,-23.302 4.478,-34.576 5.544,-0.864 11.06,-1.487 16.646,-2.002 z"
     id="path26"
     style="fill:#f89828;fill-opacity:1" />
  <path
     fill="#F2B2B2"
     d="m 744.236,422.708 c 4.012,-0.32 8.289,-0.005 12.269,0.572 12.719,1.844 24.464,7.662 32.222,18.131 10.002,13.499 10.341,28.352 7.92,44.343 -8.4,7.121 -15.244,16.448 -22.242,24.923 l -2.388,2.737 c -8.809,-26.715 -30.899,-48.225 -49.669,-68.301 5.949,-6.94 11.043,-14.456 16.186,-21.997 z"
     id="path27"
     style="fill:#f89828;fill-opacity:1" />
  <path
     fill="#fefcfb"
     d="m 347.577,574.354 c 10.517,0.936 21.269,3.836 31.608,5.936 -6.317,8.317 -11.658,17.542 -16.871,26.574 -11.488,19.6 -21.545,40.005 -30.092,61.055 l -2.448,-8.561 c -1.377,-4.134 -2.765,-10.879 -6.786,-13.22 -5.32,0.307 -18.003,8.121 -23.269,10.924 3.969,-9.314 9.696,-18.286 14.63,-27.136 10.441,-18.726 20.965,-37.965 33.228,-55.572 z"
     id="path28" />
  <path
     fill="#F2B2B2"
     d="m 321.018,198.453 c 1.731,-0.034 3.224,-0.023 4.913,0.381 1.379,1.753 1.057,8.899 1.22,11.386 0.836,12.793 2.622,25.39 4.532,38.059 2.716,18.018 6.999,35.555 11.513,53.188 3.566,13.928 7.181,27.882 11.591,41.57 20.93,64.967 49.7,127.764 82.187,187.726 9.124,16.87 18.453,33.628 27.984,50.27 4.376,7.707 9.218,15.258 13.274,23.13 -0.427,-0.248 -0.503,-0.268 -0.922,-0.656 -2.216,-2.055 -4.156,-5.258 -6.04,-7.696 C 457.541,578.037 446.523,558.628 435.561,539.084 386.34,451.331 341.825,351.088 326.28,251.087 c -2.713,-17.453 -4.896,-34.957 -5.262,-52.634 z"
     id="path29"
     style="fill:#f89828;fill-opacity:1" />
  <path
     fill="#F2B2B2"
     d="m 442.092,232.688 c 1.046,-0.008 2.088,0.022 3.133,0.049 1.105,1.14 0.636,3.111 0.467,4.657 -0.827,7.551 -2.244,15.042 -2.965,22.608 -1.559,16.357 -1.814,32.675 -1.421,49.089 1.426,54.935 6.688,109.703 15.745,163.905 4.25,25.01 10.083,49.743 14.863,74.658 3.042,15.857 7.84,31.72 12.038,47.329 1.65,6.133 4.417,13.202 4.954,19.47 l -0.81,0.865 c -0.651,-1.576 -1.234,-3.18 -1.747,-4.807 -2.647,-8.565 -4.859,-17.294 -7.346,-25.91 -2.132,-7.387 -4.589,-14.681 -6.604,-22.102 -25.714,-94.728 -38.767,-186.411 -36.244,-284.69 0.157,-6.118 2.005,-41.498 3.855,-44.43 0.399,-0.633 1.394,-0.563 2.082,-0.691 z"
     id="path30"
     style="fill:#f89828;fill-opacity:1" />
  <path
     fill="#F2B2B2"
     d="m 844.48,573.573 c 0.156,0.078 0.34,0.114 0.468,0.233 0.876,0.812 1.078,1.363 1.083,2.466 -0.582,0.686 -1.095,1.165 -1.88,1.623 -7.168,4.179 -24.65,9.59 -32.964,12.38 -20.993,6.845 -42.312,12.648 -63.878,17.387 -63.01,14.146 -127.274,21.976 -191.837,23.373 -15.309,0.44 -33.817,2.152 -48.614,-1.34 -1.992,-0.899 -3.976,-1.814 -5.953,-2.746 13.762,-1.545 28.476,-0.594 42.381,-0.855 21.085,-0.411 42.152,-1.457 63.174,-3.137 60.474,-4.471 120.365,-14.851 178.817,-30.989 19.915,-5.518 39.486,-12.224 59.203,-18.395 z"
     id="path31"
     style="fill:#f89828;fill-opacity:1" />
  <path
     fill="#F2B2B2"
     d="m 592.426,312.392 c 1.243,0.241 0.676,10e-4 1.705,0.709 0.111,4.997 -15.234,37.162 -18.218,44.543 -3.99,10.016 -7.82,20.094 -11.49,30.231 -20.08,56.106 -37.912,112.992 -53.454,170.52 -4.728,17.868 -10.09,35.352 -13.636,53.517 l -0.464,0.685 c -1.175,-3.314 1.653,-15.293 2.224,-19.33 1.381,-9.756 3.593,-19.274 5.644,-28.902 5.721,-26.859 12.798,-53.038 20.777,-79.305 11.232,-38.062 23.949,-75.669 38.125,-112.735 6.644,-17.08 14.127,-34.094 21.497,-50.886 1.81,-4.123 2.816,-7.294 7.29,-9.047 z"
     id="path32"
     style="fill:#f89828;fill-opacity:1" />
  <path
     fill="#F2B2B2"
     d="m 729.368,420.333 c 0.517,0.424 1.246,0.919 1.641,1.451 0.625,0.841 0.584,1.364 0.273,2.332 -0.984,3.056 -13.664,18.375 -16.61,22.183 -48.925,63.241 -143.217,140.085 -215.245,174.776 l -1.467,0.277 c 0.169,-2.29 37.928,-26.312 42.211,-29.176 39.877,-26.661 78.45,-55.868 113.311,-88.914 27.028,-26.006 52.374,-53.705 75.886,-82.929 z"
     id="path33"
     style="fill:#f89828;fill-opacity:1" />
  <path
     fill="#F2B2B2"
     d="m 805.832,495.964 c 7.714,2.044 15.347,5.577 21.779,10.323 16.761,12.367 22.844,31.721 25.722,51.421 -3.679,-4.128 -7.43,-8.047 -11.486,-11.81 -11.904,-11.276 -27.39,-20.061 -43.62,-22.989 -5.033,-0.908 -10.249,-1.129 -15.347,-1.504 6.97,-8.894 15.458,-16.933 22.952,-25.441 z"
     id="path34"
     style="fill:#f89828;fill-opacity:1" />
  <path
     fill="#F2B2B2"
     d="m 358.613,186.707 c 4.971,-0.134 10.155,0.397 15.067,1.143 23.744,3.609 46.676,15.77 61.063,35.257 -1.396,12.037 -2.182,24.137 -2.355,36.254 -1.83,-5.066 -3.823,-10.027 -5.906,-14.993 -2.231,-4.869 -4.63,-9.403 -7.787,-13.748 -12.906,-17.761 -32.935,-30.055 -53.972,-35.659 -9.51,-2.534 -19.37,-3.886 -29.077,-5.461 7.578,-1.648 15.243,-2.312 22.967,-2.793 z"
     id="path35"
     style="fill:#f89828;fill-opacity:1" />
  <path
     fill="#F2B2B2"
     d="m 797.605,492.342 c 1.06,0.376 1.66,0.716 2.492,1.475 -0.004,0.301 0.06,0.61 -0.01,0.903 -0.214,0.897 -21.717,24.007 -24.411,26.976 l -1.118,0.691 -0.778,-0.402 c -0.003,-0.157 -0.026,-0.314 -0.009,-0.47 0.577,-5.477 19.144,-24.68 23.834,-29.173 z"
     id="path36"
     style="fill:#f89828;fill-opacity:1" />
  <path
     fill="#6e526b"
     d="m 218.344,373.181 c 9.102,-1.51 20.257,0.333 28.791,3.627 12.385,4.781 22.709,14.012 28.1,26.228 6.827,15.468 3.576,29.204 -2.361,44.235 3.012,-0.551 6.032,-1.173 9.101,-1.273 7.252,-0.236 13.968,2.251 19.165,7.376 5.241,5.169 7.89,12.153 7.995,19.445 0.161,11.251 -5.435,19.431 -13.01,27.183 6.97,2.256 37.184,12.444 40.82,16.657 0.696,0.807 0.528,0.411 0.436,1.496 -2.306,0.924 -5.163,0.208 -7.465,-0.484 -13.023,-3.909 -25.806,-9.894 -38.56,-14.682 L 214.633,474.498 102.328,433.194 c -11.9377,-4.506 -26.7341,-8.878 -38.0232,-13.925 -1.9694,-0.88 -4.1202,-1.816 -4.9514,-3.937 0.3476,-1.164 0.4097,-1.145 1.4263,-1.83 4.7239,-0.101 21.7051,7.665 27.3225,9.599 2.8111,-9.665 6.4399,-18.732 14.3698,-25.389 8.711,-7.314 20.185,-10.233 31.404,-9.138 14.823,1.447 25.318,9.229 34.547,20.395 2.5,-4.149 5.028,-8.272 8,-12.105 10.581,-13.643 24.899,-21.459 41.921,-23.683 z"
     id="path37" />
  <path
     fill="#fefcfb"
     d="m 221.786,377.704 c 10.543,-0.716 21.961,1.903 31.071,7.282 15.568,9.193 24.753,27.463 20.971,45.472 -0.961,4.577 -9.304,19.865 -8.523,22.94 0.564,0.451 0.829,0.884 1.598,0.874 3.467,-0.047 9.167,-3.424 14.561,-3.58 6.078,-0.176 12.339,1.89 16.65,6.274 4.127,4.196 6.182,10.131 6.143,15.96 -0.071,10.463 -5.778,17.806 -12.744,24.939 C 260.092,487.01 229.057,474.842 197.794,463.51 L 93.0841,424.537 c 1.0894,-6.463 3.0689,-12.005 6.9279,-17.358 5.509,-7.642 13.815,-12.269 23.086,-13.675 14.382,-2.182 29.699,3.22 38.389,15.103 2.051,2.805 4.214,7.686 6.939,9.663 1.045,-0.119 1.229,-0.062 1.875,-0.982 1.475,-2.104 2.389,-5.23 3.505,-7.607 1.906,-4.063 4.589,-7.844 7.427,-11.304 10.462,-12.758 24.315,-19.07 40.553,-20.673 z"
     id="path38" />
  <path
     fill="#6e526b"
     d="m 216.819,250.21 c 2.672,-0.153 5.741,0.003 8.337,0.655 6.676,1.677 12.209,6.325 15.566,12.274 4.732,8.384 3.932,16.033 1.398,24.847 1.737,0.06 3.499,0.105 5.217,0.383 4.379,0.708 8.693,2.69 11.25,6.446 2.002,2.925 2.761,6.525 2.111,10.009 -0.807,4.167 -3.249,9.036 -6.839,11.427 -1.332,0.358 -2.324,0.143 -3.631,-0.177 -5.819,-1.421 -11.661,-3.945 -17.337,-5.93 l -34.856,-12.249 c -12.035,-3.55 -23.896,-8.413 -35.713,-12.662 -6.021,-2.165 -13.053,-3.837 -18.705,-6.748 -1.146,-0.59 -1.757,-1.248 -2.154,-2.488 0.387,-1.153 0.491,-1.133 1.532,-1.792 3.753,-0.074 8.159,1.893 11.728,3.035 1.011,-4.652 2.332,-8.393 5.739,-11.923 4.149,-4.232 9.831,-6.61 15.758,-6.595 6.633,0.02 11.139,2.74 15.614,7.293 1.178,-1.933 2.428,-3.899 3.896,-5.629 5.688,-6.705 12.523,-9.496 21.089,-10.176 z"
     id="path39" />
  <path
     fill="#fefcfb"
     d="m 212.807,255.119 c 3.852,-0.379 7.542,-0.294 11.309,0.696 5.234,1.376 9.558,4.374 12.256,9.112 5.302,9.312 2.565,17.797 -0.085,27.275 1.36,1.37 12.712,-0.669 18.324,4.593 1.413,1.326 2.334,2.986 2.277,4.962 -0.109,3.741 -2.848,7.184 -5.38,9.685 -13.313,-3.713 -26.567,-9.09 -39.635,-13.687 -17.48,-6.165 -35.469,-11.874 -52.49,-19.198 0.775,-3.194 1.502,-6.005 3.493,-8.711 2.655,-3.608 6.446,-5.941 10.922,-6.455 2.484,-0.273 4.998,-0.006 7.37,0.783 7.895,2.572 5.627,6.743 10.316,9.918 0.361,0.244 1.194,0.401 1.592,0.115 0.765,-0.549 3.6,-6.768 4.433,-8.062 3.784,-5.881 8.786,-8.969 15.298,-11.026 z"
     id="path40" />
</svg>
