<svg width="154" height="37" viewBox="0 0 154 37" fill="none" xmlns="http://www.w3.org/2000/svg">
<path d="M72.0109 15.6989H69.0649C68.9516 15.0694 68.7407 14.5155 68.4323 14.0371C68.1238 13.5587 67.7462 13.1527 67.2992 12.819C66.8523 12.4854 66.3518 12.2336 65.7979 12.0637C65.2502 11.8937 64.668 11.8087 64.0511 11.8087C62.9369 11.8087 61.9392 12.0888 61.0579 12.6491C60.1829 13.2093 59.4905 14.0308 58.9806 15.1135C58.477 16.1962 58.2252 17.5181 58.2252 19.0793C58.2252 20.653 58.477 21.9812 58.9806 23.0639C59.4905 24.1466 60.186 24.965 61.0673 25.5189C61.9486 26.0728 62.94 26.3498 64.0416 26.3498C64.6522 26.3498 65.2314 26.268 65.779 26.1043C66.333 25.9344 66.8334 25.6857 67.2803 25.3584C67.7273 25.0311 68.105 24.6313 68.4134 24.1592C68.7282 23.6808 68.9453 23.1332 69.0649 22.5163L72.0109 22.5257C71.8535 23.4762 71.5482 24.3512 71.095 25.1507C70.6481 25.9438 70.0721 26.6299 69.3671 27.2091C68.6684 27.7819 67.8689 28.2257 66.9687 28.5404C66.0686 28.8552 65.0866 29.0125 64.0228 29.0125C62.3483 29.0125 60.8564 28.616 59.5471 27.8228C58.2378 27.0234 57.2054 25.8809 56.45 24.3953C55.701 22.9097 55.3264 21.1377 55.3264 19.0793C55.3264 17.0146 55.7041 15.2426 56.4595 13.7633C57.2149 12.2777 58.2472 11.1383 59.5566 10.3452C60.8659 9.54571 62.3546 9.14599 64.0228 9.14599C65.0488 9.14599 66.0056 9.29392 66.8932 9.58978C67.7871 9.87934 68.5897 10.3074 69.301 10.8739C70.0123 11.4342 70.6009 12.1203 71.0667 12.9323C71.5325 13.7381 71.8473 14.6603 72.0109 15.6989Z" fill="#263238"/>
<path d="M81.3847 29.0409C80.025 29.0409 78.8385 28.7293 77.825 28.1061C76.8115 27.4829 76.0247 26.6111 75.4644 25.4906C74.9042 24.3701 74.6241 23.0608 74.6241 21.5626C74.6241 20.0581 74.9042 18.7425 75.4644 17.6157C76.0247 16.4889 76.8115 15.614 77.825 14.9908C78.8385 14.3676 80.025 14.056 81.3847 14.056C82.7444 14.056 83.931 14.3676 84.9445 14.9908C85.9579 15.614 86.7448 16.4889 87.305 17.6157C87.8653 18.7425 88.1454 20.0581 88.1454 21.5626C88.1454 23.0608 87.8653 24.3701 87.305 25.4906C86.7448 26.6111 85.9579 27.4829 84.9445 28.1061C83.931 28.7293 82.7444 29.0409 81.3847 29.0409ZM81.3942 26.6709C82.2755 26.6709 83.0057 26.438 83.5848 25.9721C84.1639 25.5063 84.592 24.8863 84.8689 24.112C85.1522 23.3377 85.2938 22.4848 85.2938 21.5531C85.2938 20.6278 85.1522 19.778 84.8689 19.0037C84.592 18.2232 84.1639 17.5968 83.5848 17.1247C83.0057 16.6526 82.2755 16.4165 81.3942 16.4165C80.5066 16.4165 79.7701 16.6526 79.1847 17.1247C78.6056 17.5968 78.1744 18.2232 77.8911 19.0037C77.6141 19.778 77.4756 20.6278 77.4756 21.5531C77.4756 22.4848 77.6141 23.3377 77.8911 24.112C78.1744 24.8863 78.6056 25.5063 79.1847 25.9721C79.7701 26.438 80.5066 26.6709 81.3942 26.6709Z" fill="#263238"/>
<path d="M94.12 9.41038V28.7482H91.2968V9.41038H94.12Z" fill="#263238"/>
<path d="M97.9182 28.7482V14.2448H100.741V28.7482H97.9182ZM99.3439 12.007C98.8529 12.007 98.4312 11.8433 98.0787 11.516C97.7325 11.1824 97.5594 10.7858 97.5594 10.3263C97.5594 9.86046 97.7325 9.46388 98.0787 9.13655C98.4312 8.80292 98.8529 8.63611 99.3439 8.63611C99.8349 8.63611 100.254 8.80292 100.6 9.13655C100.952 9.46388 101.129 9.86046 101.129 10.3263C101.129 10.7858 100.952 11.1824 100.6 11.516C100.254 11.8433 99.8349 12.007 99.3439 12.007Z" fill="#263238"/>
<path d="M117.853 15.5195C117.671 14.9467 117.425 14.4337 117.117 13.9804C116.815 13.5209 116.453 13.1306 116.031 12.8096C115.609 12.4823 115.127 12.2336 114.586 12.0637C114.051 11.8937 113.463 11.8087 112.82 11.8087C111.731 11.8087 110.749 12.0888 109.874 12.6491C108.999 13.2093 108.307 14.0308 107.797 15.1135C107.294 16.1899 107.042 17.5087 107.042 19.0698C107.042 20.6372 107.297 21.9623 107.807 23.045C108.316 24.1277 109.015 24.9492 109.903 25.5095C110.79 26.0697 111.801 26.3498 112.934 26.3498C113.985 26.3498 114.901 26.1358 115.681 25.7077C116.468 25.2797 117.076 24.6754 117.504 23.8948C117.938 23.108 118.155 22.1826 118.155 21.1188L118.911 21.2604H113.378V18.8527H120.979V21.0527C120.979 22.6768 120.632 24.0868 119.94 25.2828C119.254 26.4726 118.303 27.3916 117.088 28.04C115.88 28.6884 114.495 29.0125 112.934 29.0125C111.184 29.0125 109.648 28.6097 108.326 27.8039C107.01 26.9982 105.984 25.8557 105.248 24.3764C104.511 22.8908 104.143 21.1282 104.143 19.0887C104.143 17.5465 104.357 16.1616 104.785 14.9341C105.213 13.7066 105.814 12.6648 106.589 11.8087C107.369 10.9463 108.285 10.2885 109.336 9.83528C110.394 9.37575 111.549 9.14599 112.802 9.14599C113.846 9.14599 114.819 9.30022 115.719 9.60866C116.626 9.91711 117.431 10.3546 118.136 10.9211C118.848 11.4877 119.436 12.1612 119.902 12.9418C120.368 13.7161 120.683 14.5753 120.846 15.5195H117.853Z" fill="#FF5A01"/>
<path d="M130.565 29.0409C129.205 29.0409 128.019 28.7293 127.005 28.1061C125.992 27.4829 125.205 26.6111 124.645 25.4906C124.084 24.3701 123.804 23.0608 123.804 21.5626C123.804 20.0581 124.084 18.7425 124.645 17.6157C125.205 16.4889 125.992 15.614 127.005 14.9908C128.019 14.3676 129.205 14.056 130.565 14.056C131.925 14.056 133.111 14.3676 134.125 14.9908C135.138 15.614 135.925 16.4889 136.485 17.6157C137.045 18.7425 137.326 20.0581 137.326 21.5626C137.326 23.0608 137.045 24.3701 136.485 25.4906C135.925 26.6111 135.138 27.4829 134.125 28.1061C133.111 28.7293 131.925 29.0409 130.565 29.0409ZM130.574 26.6709C131.456 26.6709 132.186 26.438 132.765 25.9721C133.344 25.5063 133.772 24.8863 134.049 24.112C134.332 23.3377 134.474 22.4848 134.474 21.5531C134.474 20.6278 134.332 19.778 134.049 19.0037C133.772 18.2232 133.344 17.5968 132.765 17.1247C132.186 16.6526 131.456 16.4165 130.574 16.4165C129.687 16.4165 128.95 16.6526 128.365 17.1247C127.786 17.5968 127.354 18.2232 127.071 19.0037C126.794 19.778 126.656 20.6278 126.656 21.5531C126.656 22.4848 126.794 23.3377 127.071 24.112C127.354 24.8863 127.786 25.5063 128.365 25.9721C128.95 26.438 129.687 26.6709 130.574 26.6709Z" fill="#FF5A01"/>
<path d="M146.586 29.0409C145.226 29.0409 144.04 28.7293 143.026 28.1061C142.013 27.4829 141.226 26.6111 140.666 25.4906C140.105 24.3701 139.825 23.0608 139.825 21.5626C139.825 20.0581 140.105 18.7425 140.666 17.6157C141.226 16.4889 142.013 15.614 143.026 14.9908C144.04 14.3676 145.226 14.056 146.586 14.056C147.946 14.056 149.132 14.3676 150.146 14.9908C151.159 15.614 151.946 16.4889 152.506 17.6157C153.067 18.7425 153.347 20.0581 153.347 21.5626C153.347 23.0608 153.067 24.3701 152.506 25.4906C151.946 26.6111 151.159 27.4829 150.146 28.1061C149.132 28.7293 147.946 29.0409 146.586 29.0409ZM146.595 26.6709C147.477 26.6709 148.207 26.438 148.786 25.9721C149.365 25.5063 149.793 24.8863 150.07 24.112C150.353 23.3377 150.495 22.4848 150.495 21.5531C150.495 20.6278 150.353 19.778 150.07 19.0037C149.793 18.2232 149.365 17.5968 148.786 17.1247C148.207 16.6526 147.477 16.4165 146.595 16.4165C145.708 16.4165 144.971 16.6526 144.386 17.1247C143.807 17.5968 143.376 18.2232 143.092 19.0037C142.815 19.778 142.677 20.6278 142.677 21.5531C142.677 22.4848 142.815 23.3377 143.092 24.112C143.376 24.8863 143.807 25.5063 144.386 25.9721C144.971 26.438 145.708 26.6709 146.595 26.6709Z" fill="#FF5A01"/>
<mask id="path-2-inside-1_0_1599" fill="white">
<path d="M25.0251 2.3023C21.9524 1.80803 18.8035 2.14401 15.9043 3.27547C13.0051 4.40692 10.4609 6.29273 8.53532 8.73764C6.6097 11.1826 5.37256 14.0977 4.95197 17.1814C4.53139 20.265 4.94264 23.405 6.14317 26.2763C7.34369 29.1476 9.28984 31.6458 11.7801 33.5124C14.2705 35.3789 17.2144 36.546 20.3072 36.8926C23.4 37.2393 26.5293 36.753 29.371 35.4841C32.2128 34.2152 34.6637 32.2098 36.4701 29.6755L22.2521 19.541L25.0251 2.3023Z"/>
</mask>
<path d="M25.0251 2.3023C21.9524 1.80803 18.8035 2.14401 15.9043 3.27547C13.0051 4.40692 10.4609 6.29273 8.53532 8.73764C6.6097 11.1826 5.37256 14.0977 4.95197 17.1814C4.53139 20.265 4.94264 23.405 6.14317 26.2763C7.34369 29.1476 9.28984 31.6458 11.7801 33.5124C14.2705 35.3789 17.2144 36.546 20.3072 36.8926C23.4 37.2393 26.5293 36.753 29.371 35.4841C32.2128 34.2152 34.6637 32.2098 36.4701 29.6755L22.2521 19.541L25.0251 2.3023Z" stroke="#263238" stroke-width="18.8989" mask="url(#path-2-inside-1_0_1599)"/>
<ellipse cx="22.3505" cy="19.4991" rx="14.4686" ry="14.3281" fill="white"/>
<path d="M15.4732 23.7571C15.7376 23.9026 15.9873 24.0779 16.1392 24.178C16.3095 24.2902 16.4557 24.3787 16.6343 24.4592L16.8482 24.5549L17.0142 24.72L17.23 24.9358L19.6031 27.2961L16.2603 27.136L5.59917 26.6262L5.59722 24.052L14.7877 23.5989L15.1529 23.5813L15.4732 23.7571Z" fill="#FF5A01" stroke="white" stroke-width="2.57713"/>
<path d="M13.0154 20.7413L13.3572 21.0812L13.4958 21.2198L13.5876 21.3927C13.7236 21.6498 13.905 21.9808 14.0554 22.2247L12.8689 22.9933L12.8181 24.0734L0.795654 23.4933L0.794678 20.9191L12.0437 20.3683L12.6121 20.3409L13.0154 20.7413Z" fill="#FF5A01" stroke="white" stroke-width="2.57713"/>
<path d="M14.1257 22.3572C14.269 22.4929 14.4738 22.7316 14.615 22.8923C14.789 23.0905 14.9695 23.2937 15.1443 23.4685L14.116 24.5476L14.0672 25.574L3.29469 25.0593L3.29371 22.4861L13.1775 22.0056L13.7263 21.9792L14.1257 22.3572Z" fill="#FF5A01" stroke="white" stroke-width="2.57713"/>
<path d="M20.1978 16.6239C20.08 16.2732 19.9174 15.9593 19.71 15.6822C19.5073 15.4007 19.2622 15.1604 18.9747 14.9613C18.6918 14.7621 18.3666 14.6127 17.999 14.5131C17.6313 14.4092 17.2307 14.3573 16.797 14.3573C16.0193 14.3573 15.3264 14.537 14.7184 14.8963C14.1103 15.2557 13.6319 15.7839 13.2831 16.481C12.939 17.1738 12.767 18.018 12.767 19.0139C12.767 20.0184 12.939 20.8692 13.2831 21.5662C13.6272 22.2633 14.1056 22.7937 14.7184 23.1574C15.3311 23.5168 16.0429 23.6965 16.8536 23.6965C17.5889 23.6965 18.2252 23.5666 18.7626 23.3068C19.3046 23.047 19.7217 22.679 20.014 22.2027C20.3062 21.7221 20.4523 21.1593 20.4523 20.5141L21.0462 20.5986H17.1152V18.7151H22.9906V20.3128C22.9906 21.4515 22.7266 22.4365 22.1987 23.2678C21.6708 24.0991 20.9449 24.7399 20.0211 25.1902C19.0972 25.6362 18.0367 25.8592 16.8394 25.8592C15.5055 25.8592 14.3342 25.5842 13.3255 25.0343C12.3216 24.4801 11.5368 23.6943 10.9711 22.6768C10.4102 21.655 10.1298 20.4427 10.1298 19.0399C10.1298 17.9661 10.2947 17.0071 10.6247 16.1628C10.9594 15.3185 11.426 14.6019 12.0246 14.0131C12.6232 13.4199 13.3255 12.9696 14.1315 12.6622C14.9375 12.3504 15.8143 12.1946 16.7617 12.1946C17.563 12.1946 18.3101 12.3028 19.0029 12.5193C19.6958 12.7315 20.3109 13.0345 20.8483 13.4285C21.3903 13.8226 21.8358 14.2902 22.1846 14.8314C22.5334 15.3726 22.762 15.9701 22.8704 16.6239H20.1978Z" fill="#FF5A01"/>
<path d="M29.6946 25.567C28.5078 25.567 27.472 25.295 26.5874 24.7511C25.7028 24.2071 25.016 23.4461 24.5269 22.468C24.0379 21.49 23.7934 20.3471 23.7934 19.0394C23.7934 17.7262 24.0379 16.5778 24.5269 15.5943C25.016 14.6107 25.7028 13.847 26.5874 13.303C27.472 12.759 28.5078 12.4871 29.6946 12.4871C30.8815 12.4871 31.9172 12.759 32.8018 13.303C33.6865 13.847 34.3733 14.6107 34.8623 15.5943C35.3513 16.5778 35.5959 17.7262 35.5959 19.0394C35.5959 20.3471 35.3513 21.49 34.8623 22.468C34.3733 23.4461 33.6865 24.2071 32.8018 24.7511C31.9172 25.295 30.8815 25.567 29.6946 25.567ZM29.7029 23.4983C30.4721 23.4983 31.1095 23.295 31.615 22.8884C32.1205 22.4818 32.4941 21.9406 32.7359 21.2647C32.9832 20.5889 33.1068 19.8444 33.1068 19.0312C33.1068 18.2234 32.9832 17.4817 32.7359 16.8058C32.4941 16.1245 32.1205 15.5778 31.615 15.1657C31.1095 14.7536 30.4721 14.5475 29.7029 14.5475C28.9281 14.5475 28.2853 14.7536 27.7743 15.1657C27.2687 15.5778 26.8924 16.1245 26.6451 16.8058C26.4033 17.4817 26.2825 18.2234 26.2825 19.0312C26.2825 19.8444 26.4033 20.5889 26.6451 21.2647C26.8924 21.9406 27.2687 22.4818 27.7743 22.8884C28.2853 23.295 28.9281 23.4983 29.7029 23.4983Z" fill="#FF5A01"/>
<rect x="21.8638" y="4.32812" width="15.1709" height="1.68566" rx="0.842829" fill="white"/>
<path d="M37.9429 3.6258L34.0097 0.675903V1.83541V5.41619V6.5757L37.9429 3.6258Z" fill="#263238"/>
<rect x="20.7668" y="2.08826" width="14.83" height="3.17786" fill="#263238"/>
<path d="M14.8516 24.886L5.66091 25.3391L16.3217 25.8492L16.1053 25.6338C15.568 25.3916 15.2622 25.112 14.8516 24.886Z" fill="#FF5A01"/>
<path d="M12.1068 21.6554L0.858154 22.2062L12.8799 22.7864C12.9051 22.8257 12.9322 22.8628 12.9583 22.9012C12.7848 22.6198 12.5876 22.2581 12.4486 21.9952L12.1068 21.6554Z" fill="#FF5A01"/>
<path d="M3.35621 23.7727L14.129 24.2869C14.1631 24.319 14.199 24.3479 14.2338 24.3795C13.8195 23.9653 13.4136 23.4576 13.2395 23.2927L3.35621 23.7727Z" fill="#FF5A01"/>
</svg>
