<svg width="111" height="103" viewBox="0 0 111 103" fill="none" xmlns="http://www.w3.org/2000/svg">
<mask id="path-1-inside-1_0_1469" fill="white">
<path d="M68.8463 4.82543C60.183 3.43185 51.3046 4.37914 43.1304 7.56925C34.9561 10.7594 27.783 16.0763 22.3538 22.9697C16.9246 29.8631 13.4365 38.0823 12.2507 46.7765C11.0648 55.4707 12.2243 64.3239 15.6092 72.4195C18.994 80.515 24.4812 87.5588 31.5025 92.8214C38.5239 98.0841 46.8242 101.375 55.5443 102.352C64.2644 103.329 73.0873 101.958 81.0995 98.3806C89.1118 94.803 96.0221 89.1488 101.115 82.0035L61.0279 53.4294L68.8463 4.82543Z"/>
</mask>
<path d="M68.8463 4.82543C60.183 3.43185 51.3046 4.37914 43.1304 7.56925C34.9561 10.7594 27.783 16.0763 22.3538 22.9697C16.9246 29.8631 13.4365 38.0823 12.2507 46.7765C11.0648 55.4707 12.2243 64.3239 15.6092 72.4195C18.994 80.515 24.4812 87.5588 31.5025 92.8214C38.5239 98.0841 46.8242 101.375 55.5443 102.352C64.2644 103.329 73.0873 101.958 81.0995 98.3806C89.1118 94.803 96.0221 89.1488 101.115 82.0035L61.0279 53.4294L68.8463 4.82543Z" stroke="#263238" stroke-width="53.2851" mask="url(#path-1-inside-1_0_1469)"/>
<ellipse cx="61.3053" cy="53.3114" rx="40.7937" ry="40.3977" fill="#F7F7FB"/>
<path d="M41.9139 65.317C42.6597 65.7275 43.3655 66.2204 43.7938 66.5026C44.2742 66.8191 44.6854 67.0694 45.1893 67.2965L45.7909 67.567L46.2587 68.0329L46.869 68.6393L53.5594 75.2956L44.1337 74.8444L14.0751 73.4059L14.0702 66.1481L39.9833 64.8708L41.0116 64.82L41.9139 65.317Z" fill="#FF5A01" stroke="#F7F7FB" stroke-width="7.26614"/>
<path d="M34.9856 56.8147L35.9485 57.7727L36.3401 58.1624L36.5989 58.6507C36.9822 59.3754 37.4922 60.3087 37.9163 60.9964L34.5754 63.1624L34.428 66.2083L0.533447 64.5725L0.530518 57.3147L32.2463 55.762L33.8479 55.6839L34.9856 56.8147Z" fill="#FF5A01" stroke="#F7F7FB" stroke-width="7.26614"/>
<path d="M38.1157 61.3707C38.5196 61.7534 39.0966 62.4252 39.4946 62.8785C39.9855 63.4375 40.4957 64.0096 40.9888 64.5025L38.0894 67.5435L37.9517 70.439L7.57861 68.9898L7.57568 61.732L35.4409 60.3785L36.9907 60.3033L38.1157 61.3707Z" fill="#FF5A01" stroke="#F7F7FB" stroke-width="7.26614"/>
<path d="M55.2359 45.2047C54.9037 44.2159 54.4452 43.3309 53.8604 42.5496C53.289 41.7561 52.5979 41.0786 51.7872 40.517C50.9899 39.9555 50.0729 39.5343 49.0363 39.2536C47.9997 38.9606 46.8701 38.8141 45.6475 38.8141C43.4547 38.8141 41.5011 39.3207 39.7867 40.3339C38.0724 41.3471 36.7235 42.8365 35.7401 44.8019C34.7699 46.7551 34.2849 49.1355 34.2849 51.9433C34.2849 54.7754 34.7699 57.1742 35.7401 59.1396C36.7102 61.105 38.0591 62.6004 39.7867 63.6259C41.5144 64.6391 43.5211 65.1457 45.8069 65.1457C47.8801 65.1457 49.6742 64.7795 51.1892 64.047C52.7175 63.3146 53.8936 62.2769 54.7176 60.9341C55.5416 59.5791 55.9535 57.9921 55.9535 56.1732L57.628 56.4112H46.5445V51.1009H63.11V55.6055C63.11 58.8161 62.3658 61.5933 60.8773 63.9371C59.3889 66.281 57.3423 68.0877 54.7375 69.3573C52.1328 70.6147 49.1426 71.2433 45.7671 71.2433C42.0061 71.2433 38.7036 70.4682 35.8597 68.9178C33.029 67.3553 30.8163 65.1396 29.2215 62.2708C27.6401 59.3898 26.8493 55.9717 26.8493 52.0165C26.8493 48.989 27.3145 46.2851 28.2447 43.9046C29.1883 41.5242 30.504 39.5038 32.1917 37.8436C33.8795 36.1712 35.8597 34.9016 38.1322 34.0348C40.4047 33.1559 42.8766 32.7164 45.5478 32.7164C47.807 32.7164 49.9134 33.0216 51.867 33.632C53.8205 34.2302 55.5548 35.0847 57.0699 36.1956C58.5982 37.3065 59.854 38.6249 60.8375 40.1508C61.8209 41.6767 62.4654 43.3614 62.7711 45.2047H55.2359Z" fill="#FF5A01"/>
<path d="M82.0122 70.4192C78.6659 70.4192 75.7457 69.6524 73.2515 68.1187C70.7573 66.585 68.8208 64.4393 67.442 61.6818C66.0632 58.9242 65.3738 55.7019 65.3738 52.0148C65.3738 48.3122 66.0632 45.0744 67.442 42.3014C68.8208 39.5283 70.7573 37.3749 73.2515 35.8412C75.7457 34.3075 78.6659 33.5407 82.0122 33.5407C85.3584 33.5407 88.2787 34.3075 90.7729 35.8412C93.2671 37.3749 95.2036 39.5283 96.5823 42.3014C97.9611 45.0744 98.6505 48.3122 98.6505 52.0148C98.6505 55.7019 97.9611 58.9242 96.5823 61.6818C95.2036 64.4393 93.2671 66.585 90.7729 68.1187C88.2787 69.6524 85.3584 70.4192 82.0122 70.4192ZM82.0354 64.5865C84.2043 64.5865 86.0013 64.0133 87.4266 62.8669C88.8519 61.7205 89.9053 60.1945 90.587 58.289C91.2841 56.3835 91.6327 54.2844 91.6327 51.9916C91.6327 49.7142 91.2841 47.6228 90.587 45.7173C89.9053 43.7963 88.8519 42.2549 87.4266 41.093C86.0013 39.9311 84.2043 39.3501 82.0354 39.3501C79.851 39.3501 78.0385 39.9311 76.5977 41.093C75.1725 42.2549 74.1113 43.7963 73.4141 45.7173C72.7325 47.6228 72.3917 49.7142 72.3917 51.9916C72.3917 54.2844 72.7325 56.3835 73.4141 58.289C74.1113 60.1945 75.1725 61.7205 76.5977 62.8669C78.0385 64.0133 79.851 64.5865 82.0354 64.5865Z" fill="#FF5A01"/>
<rect x="59.9331" y="10.5372" width="42.774" height="4.75267" rx="2.37633" fill="#F7F7FB"/>
<path d="M105.267 8.55714L94.1777 0.239975V3.50918V13.6051V16.8743L105.267 8.55714Z" fill="#263238"/>
<rect x="56.84" y="4.22192" width="41.8129" height="8.9599" fill="#263238"/>
<path d="M40.1624 68.4997L14.2495 69.7772L44.3074 71.2154L43.697 70.6082C42.1823 69.9253 41.32 69.1368 40.1624 68.4997Z" fill="#FF5A01"/>
<path d="M32.4236 59.3909L0.708252 60.9438L34.6033 62.5799C34.6744 62.6905 34.7507 62.7953 34.8243 62.9034C34.335 62.1099 33.7792 61.0902 33.3872 60.3491L32.4236 59.3909Z" fill="#FF5A01"/>
<path d="M7.75146 65.3607L38.1251 66.8104C38.2211 66.9011 38.3224 66.9826 38.4204 67.0716C37.2523 65.9038 36.1079 64.4724 35.6172 64.0074L7.75146 65.3607Z" fill="#FF5A01"/>
</svg>
