<svg width="39" height="38" viewBox="0 0 39 38" fill="none" xmlns="http://www.w3.org/2000/svg">
<ellipse cx="19.6431" cy="18.6444" rx="18.7748" ry="18.5902" fill="#C3DDFC"/>
<path d="M19.1333 28.5315C18.4383 28.5315 17.7612 28.1751 17.2979 27.5514L16.398 26.3486C16.2109 26.0991 15.9614 25.9566 15.6941 25.9388C15.4268 25.9298 15.1595 26.0457 14.9457 26.2684L14.4378 25.814L14.9279 26.2684C13.6448 27.6405 12.6559 27.5336 12.1836 27.3465C11.7025 27.1594 10.8917 26.5446 10.8917 24.5667V14.5342C10.8917 10.5783 12.0322 9.37549 15.7654 9.37549H22.5012C26.2344 9.37549 27.3748 10.5783 27.3748 14.5342V24.5667C27.3748 26.5357 26.564 27.1505 26.0829 27.3465C25.6107 27.5336 24.6306 27.6405 23.3387 26.2684C23.1248 26.0368 22.8575 25.912 22.5813 25.9388C22.3141 25.9566 22.0557 26.0991 21.8686 26.3486L20.9687 27.5514C20.5054 28.1751 19.8282 28.5315 19.1333 28.5315ZM15.6406 24.5934C15.6763 24.5934 15.7208 24.5934 15.7565 24.5934C16.4158 24.629 17.0395 24.9765 17.4582 25.5378L18.3581 26.7406C18.7947 27.3198 19.4629 27.3198 19.8995 26.7406L20.7994 25.5378C21.2271 24.9765 21.8418 24.629 22.5101 24.5934C23.1694 24.5577 23.8287 24.8339 24.3098 25.3507C24.987 26.0724 25.4236 26.1615 25.5839 26.0991C25.7978 26.01 26.0294 25.4933 26.0294 24.5667V14.5342C26.0294 11.3178 25.4681 10.712 22.4922 10.712H15.7654C12.7895 10.712 12.2282 11.3178 12.2282 14.5342V24.5667C12.2282 25.5022 12.4598 26.0189 12.6737 26.0991C12.8251 26.1615 13.2706 26.0724 13.9478 25.3507C14.4289 24.8607 15.0259 24.5934 15.6406 24.5934Z" fill="#292D32"/>
<path d="M22.9021 18.7305H18.0017C17.6364 18.7305 17.3335 18.4276 17.3335 18.0623C17.3335 17.697 17.6364 17.394 18.0017 17.394H22.9021C23.2674 17.394 23.5703 17.697 23.5703 18.0623C23.5703 18.4276 23.2674 18.7305 22.9021 18.7305Z" fill="#292D32"/>
<path d="M22.9021 15.167H18.0017C17.6364 15.167 17.3335 14.8641 17.3335 14.4988C17.3335 14.1335 17.6364 13.8306 18.0017 13.8306H22.9021C23.2674 13.8306 23.5703 14.1335 23.5703 14.4988C23.5703 14.8641 23.2674 15.167 22.9021 15.167Z" fill="#292D32"/>
<path d="M15.3733 15.3894C14.8833 15.3894 14.4824 14.9884 14.4824 14.4984C14.4824 14.0084 14.8833 13.6074 15.3733 13.6074C15.8634 13.6074 16.2643 14.0084 16.2643 14.4984C16.2643 14.9884 15.8634 15.3894 15.3733 15.3894Z" fill="#292D32"/>
<path d="M15.3733 18.9533C14.8833 18.9533 14.4824 18.5524 14.4824 18.0624C14.4824 17.5723 14.8833 17.1714 15.3733 17.1714C15.8634 17.1714 16.2643 17.5723 16.2643 18.0624C16.2643 18.5524 15.8634 18.9533 15.3733 18.9533Z" fill="#292D32"/>
</svg>
