<svg width="20" height="21" viewBox="0 0 20 21" fill="none" xmlns="http://www.w3.org/2000/svg">
<path d="M9.99984 19.3738C5.05817 19.3738 1.0415 15.3572 1.0415 10.4155C1.0415 5.47382 5.05817 1.45715 9.99984 1.45715C14.9415 1.45715 18.9582 5.47382 18.9582 10.4155C18.9582 15.3572 14.9415 19.3738 9.99984 19.3738ZM9.99984 2.70715C5.74984 2.70715 2.2915 6.16549 2.2915 10.4155C2.2915 14.6655 5.74984 18.1238 9.99984 18.1238C14.2498 18.1238 17.7082 14.6655 17.7082 10.4155C17.7082 6.16549 14.2498 2.70715 9.99984 2.70715Z" fill="#444750"/>
<path d="M7.5002 18.5405H6.66686C6.3252 18.5405 6.04186 18.2572 6.04186 17.9155C6.04186 17.5739 6.30853 17.2989 6.6502 17.2905C5.34186 12.8239 5.34186 8.00719 6.6502 3.54053C6.30853 3.53219 6.04186 3.25719 6.04186 2.91553C6.04186 2.57386 6.3252 2.29053 6.66686 2.29053H7.5002C7.7002 2.29053 7.89186 2.39053 8.00853 2.54886C8.1252 2.71553 8.15853 2.92386 8.09186 3.11553C6.5252 7.82386 6.5252 13.0072 8.09186 17.7239C8.15853 17.9155 8.1252 18.1239 8.00853 18.2905C7.89186 18.4405 7.7002 18.5405 7.5002 18.5405Z" fill="#444750"/>
<path d="M12.5 18.5405C12.4333 18.5405 12.3667 18.5322 12.3 18.5072C11.975 18.3988 11.7917 18.0405 11.9083 17.7155C13.475 13.0072 13.475 7.82385 11.9083 3.10718C11.8 2.78218 11.975 2.42385 12.3 2.31551C12.6333 2.20718 12.9833 2.38218 13.0917 2.70718C14.75 7.67385 14.75 13.1405 13.0917 18.0988C13.0083 18.3738 12.7583 18.5405 12.5 18.5405Z" fill="#444750"/>
<path d="M10 14.7489C7.675 14.7489 5.35833 14.4239 3.125 13.7656C3.11667 14.0989 2.84167 14.3739 2.5 14.3739C2.15833 14.3739 1.875 14.0906 1.875 13.7489V12.9156C1.875 12.7156 1.975 12.5239 2.13333 12.4072C2.3 12.2906 2.50833 12.2572 2.7 12.3239C7.40833 13.8906 12.6 13.8906 17.3083 12.3239C17.5 12.2572 17.7083 12.2906 17.875 12.4072C18.0417 12.5239 18.1333 12.7156 18.1333 12.9156V13.7489C18.1333 14.0906 17.85 14.3739 17.5083 14.3739C17.1667 14.3739 16.8917 14.1072 16.8833 13.7656C14.6417 14.4239 12.325 14.7489 10 14.7489Z" fill="#444750"/>
<path d="M17.5001 8.54049C17.4335 8.54049 17.3668 8.53216 17.3001 8.50716C12.5918 6.94049 7.40015 6.94049 2.69181 8.50716C2.35848 8.61549 2.00848 8.44049 1.90015 8.11549C1.80015 7.78216 1.97515 7.43216 2.30015 7.32383C7.26681 5.66549 12.7335 5.66549 17.6918 7.32383C18.0168 7.43216 18.2001 7.79049 18.0835 8.11549C18.0085 8.37383 17.7585 8.54049 17.5001 8.54049Z" fill="#444750"/>
</svg>
