<svg xmlns="http://www.w3.org/2000/svg" width="21" height="21" viewBox="0 0 21 21" fill="none">
<path d="M15.1907 19.317H5.61539C3.34974 19.317 1.51407 17.473 1.51407 15.2074V9.08022C1.51407 7.95566 2.20865 6.54169 3.10168 5.84712L7.55856 2.37422C8.89811 1.33235 11.0397 1.28274 12.4289 2.25846L17.539 5.83885C18.523 6.52516 19.292 7.997 19.292 9.19598V15.2157C19.292 17.473 17.4563 19.317 15.1907 19.317ZM8.31929 3.34994L3.86241 6.82283C3.27532 7.28589 2.75439 8.33602 2.75439 9.08022V15.2074C2.75439 16.7867 4.03605 18.0767 5.61539 18.0767H15.1907C16.77 18.0767 18.0517 16.795 18.0517 15.2157V9.19598C18.0517 8.40218 17.4811 7.30242 16.8279 6.85591L11.7178 3.27552C10.7751 2.61401 9.22059 2.64709 8.31929 3.34994Z" fill="currentColor"/>
<path xmlns="http://www.w3.org/2000/svg" d="M10.403 16.0095C10.064 16.0095 9.78287 15.7284 9.78287 15.3894V12.9087C9.78287 12.5697 10.064 12.2886 10.403 12.2886C10.7421 12.2886 11.0232 12.5697 11.0232 12.9087V15.3894C11.0232 15.7284 10.7421 16.0095 10.403 16.0095Z" fill="currentColor"/>
</svg>