<svg width="23" height="23" viewBox="0 0 23 23" fill="none" xmlns="http://www.w3.org/2000/svg">
<path d="M8.10412 2.50089H8.22328C12.2933 2.50089 14.255 4.10505 14.5941 7.69839C14.6308 8.07422 14.3558 8.41339 13.9708 8.45006C13.6041 8.48672 13.2558 8.20256 13.2191 7.82672C12.9533 4.94839 11.5966 3.87589 8.21412 3.87589H8.09495C4.36412 3.87589 3.04412 5.19589 3.04412 8.92672L3.04412 14.9034C3.04412 18.6342 4.36412 19.9542 8.09495 19.9542H8.21412C11.615 19.9542 12.9716 18.8634 13.2191 15.9301C13.265 15.5542 13.5858 15.2701 13.9708 15.3067C14.3558 15.3342 14.6308 15.6734 14.6033 16.0492C14.2916 19.6976 12.3208 21.3292 8.22328 21.3292H8.10412C3.60328 21.3292 1.67828 19.4042 1.67828 14.9034L1.67828 8.92672C1.67828 4.42589 3.60328 2.50089 8.10412 2.50089Z" fill="#E71F1F"/>
<path d="M8.32412 11.2275L18.7558 11.2275C19.1316 11.2275 19.4433 11.5392 19.4433 11.915C19.4433 12.2909 19.1316 12.6025 18.7558 12.6025L8.32412 12.6025C7.94829 12.6025 7.63662 12.2909 7.63662 11.915C7.63662 11.5392 7.94829 11.2275 8.32412 11.2275Z" fill="#E71F1F"/>
<path d="M16.7116 8.15665C16.8858 8.15665 17.06 8.22081 17.1975 8.35831L20.2683 11.4291C20.5341 11.695 20.5341 12.135 20.2683 12.4008L17.1975 15.4716C16.9316 15.7375 16.4916 15.7375 16.2258 15.4716C15.96 15.2058 15.96 14.7658 16.2258 14.5L18.8108 11.915L16.2258 9.32998C15.96 9.06415 15.96 8.62415 16.2258 8.35831C16.3541 8.22081 16.5375 8.15665 16.7116 8.15665Z" fill="#E71F1F"/>
</svg>
