<svg width="25" height="25" viewBox="0 0 25 25" fill="none" xmlns="http://www.w3.org/2000/svg">
<path d="M12.074 13.741C11.944 13.741 11.814 13.711 11.694 13.641L2.86397 8.53106C2.50397 8.32106 2.38395 7.86103 2.59395 7.50103C2.80395 7.14103 3.25395 7.02101 3.62395 7.23101L12.074 12.121L20.474 7.26104C20.834 7.05104 21.294 7.18106 21.504 7.53106C21.714 7.89106 21.584 8.35103 21.234 8.56103L12.464 13.641C12.334 13.701 12.204 13.741 12.074 13.741Z" fill="currentColor"/>
<path d="M12.0741 22.8011C11.6641 22.8011 11.3241 22.4611 11.3241 22.0511V12.9811C11.3241 12.5711 11.6641 12.2311 12.0741 12.2311C12.4841 12.2311 12.8241 12.5711 12.8241 12.9811V22.0511C12.8241 22.4611 12.4841 22.8011 12.0741 22.8011Z" fill="currentColor"/>
<path d="M12.0742 23.191C11.1942 23.191 10.3242 23.001 9.63424 22.621L4.29424 19.6511C2.84424 18.8511 1.71426 16.921 1.71426 15.261V9.61102C1.71426 7.95102 2.84424 6.03106 4.29424 5.22106L9.63424 2.26104C11.0042 1.50104 13.1442 1.50104 14.5142 2.26104L19.8542 5.23101C21.3042 6.03101 22.4342 7.96103 22.4342 9.62103V15.271C22.4342 16.931 21.3042 18.851 19.8542 19.661L14.5142 22.621C13.8242 23.001 12.9542 23.191 12.0742 23.191ZM12.0742 3.19103C11.4442 3.19103 10.8243 3.32104 10.3643 3.57104L5.02425 6.54101C4.06425 7.08101 3.21426 8.51103 3.21426 9.62103V15.271C3.21426 16.371 4.06425 17.811 5.02425 18.351L10.3643 21.321C11.2743 21.831 12.8742 21.831 13.7842 21.321L19.1242 18.351C20.0842 17.811 20.9342 16.381 20.9342 15.271V9.62103C20.9342 8.52103 20.0842 7.08101 19.1242 6.54101L13.7842 3.57104C13.3242 3.32104 12.7042 3.19103 12.0742 3.19103Z" fill="currentColor"/>
<path d="M17.0743 14.4311C16.6643 14.4311 16.3243 14.0911 16.3243 13.6811V10.4611L7.2043 5.20111C6.8443 4.99111 6.72428 4.53109 6.93428 4.18109C7.14428 3.82109 7.5943 3.70107 7.9543 3.91107L17.4443 9.39111C17.6743 9.52111 17.8243 9.77107 17.8243 10.0411V13.7011C17.8243 14.0911 17.4843 14.4311 17.0743 14.4311Z" fill="currentColor"/>
</svg>
