<svg width="38" height="38" viewBox="0 0 38 38" fill="none" xmlns="http://www.w3.org/2000/svg">
<circle cx="19.0832" cy="18.7647" r="18.7105" fill="#CEFAFE"/>
<path d="M19.4002 28.5315C18.7052 28.5315 18.0281 28.1751 17.5648 27.5514L16.6649 26.3486C16.4778 26.0991 16.2283 25.9566 15.961 25.9388C15.6937 25.9298 15.4264 26.0457 15.2126 26.2684L14.7047 25.814L15.1948 26.2684C13.9118 27.6405 12.9228 27.5336 12.4505 27.3465C11.9694 27.1594 11.1586 26.5446 11.1586 24.5667V14.5342C11.1586 10.5783 12.2991 9.37549 16.0323 9.37549H22.7681C26.5013 9.37549 27.6417 10.5783 27.6417 14.5342V24.5667C27.6417 26.5357 26.8309 27.1505 26.3498 27.3465C25.8776 27.5336 24.8975 27.6405 23.6056 26.2684C23.3917 26.0368 23.1245 25.912 22.8483 25.9388C22.581 25.9566 22.3226 26.0991 22.1355 26.3486L21.2356 27.5514C20.7723 28.1751 20.0951 28.5315 19.4002 28.5315ZM15.9075 24.5934C15.9432 24.5934 15.9877 24.5934 16.0234 24.5934C16.6827 24.629 17.3064 24.9765 17.7251 25.5378L18.625 26.7406C19.0616 27.3198 19.7298 27.3198 20.1664 26.7406L21.0663 25.5378C21.494 24.9765 22.1087 24.629 22.777 24.5934C23.4363 24.5577 24.0956 24.8339 24.5767 25.3507C25.2539 26.0724 25.6905 26.1615 25.8508 26.0991C26.0647 26.01 26.2963 25.4933 26.2963 24.5667V14.5342C26.2963 11.3178 25.735 10.712 22.7592 10.712H16.0323C13.0564 10.712 12.4951 11.3178 12.4951 14.5342V24.5667C12.4951 25.5022 12.7268 26.0189 12.9406 26.0991C13.0921 26.1615 13.5375 26.0724 14.2147 25.3507C14.6958 24.8607 15.2928 24.5934 15.9075 24.5934Z" fill="#292D32"/>
<path d="M23.169 18.7305H18.2686C17.9033 18.7305 17.6004 18.4276 17.6004 18.0623C17.6004 17.697 17.9033 17.394 18.2686 17.394H23.169C23.5343 17.394 23.8372 17.697 23.8372 18.0623C23.8372 18.4276 23.5343 18.7305 23.169 18.7305Z" fill="#292D32"/>
<path d="M23.169 15.167H18.2686C17.9033 15.167 17.6004 14.8641 17.6004 14.4988C17.6004 14.1335 17.9033 13.8306 18.2686 13.8306H23.169C23.5343 13.8306 23.8372 14.1335 23.8372 14.4988C23.8372 14.8641 23.5343 15.167 23.169 15.167Z" fill="#292D32"/>
<path d="M15.6402 15.3894C15.1502 15.3894 14.7493 14.9884 14.7493 14.4984C14.7493 14.0084 15.1502 13.6074 15.6402 13.6074C16.1303 13.6074 16.5312 14.0084 16.5312 14.4984C16.5312 14.9884 16.1303 15.3894 15.6402 15.3894Z" fill="#292D32"/>
<path d="M15.6402 18.9533C15.1502 18.9533 14.7493 18.5524 14.7493 18.0624C14.7493 17.5723 15.1502 17.1714 15.6402 17.1714C16.1303 17.1714 16.5312 17.5723 16.5312 18.0624C16.5312 18.5524 16.1303 18.9533 15.6402 18.9533Z" fill="#292D32"/>
</svg>
