<svg width="25" height="25" viewBox="0 0 25 25" fill="none" xmlns="http://www.w3.org/2000/svg">
<path d="M13.0741 12.3411H7.07412C6.66412 12.3411 6.32412 12.0011 6.32412 11.5911C6.32412 11.1811 6.66412 10.8411 7.07412 10.8411H13.0741C13.4841 10.8411 13.8241 11.1811 13.8241 11.5911C13.8241 12.0011 13.4841 12.3411 13.0741 12.3411Z" fill="currentColor"/>
<path d="M2.07412 12.3411C1.66412 12.3411 1.32412 12.0011 1.32412 11.5911V6.97113C1.32412 4.52113 3.31412 2.53113 5.76412 2.53113H11.3841C13.9541 2.53113 15.8241 4.24113 15.8241 6.59113C15.8241 7.00113 15.4841 7.34113 15.0741 7.34113C14.6641 7.34113 14.3241 7.00113 14.3241 6.59113C14.3241 4.83113 12.7941 4.03113 11.3841 4.03113H5.76412C4.14412 4.03113 2.82412 5.35113 2.82412 6.97113V11.5911C2.82412 12.0111 2.48412 12.3411 2.07412 12.3411Z" fill="currentColor"/>
<path d="M16.0741 22.3411H6.07412C3.45412 22.3411 1.32412 20.2111 1.32412 17.5911V10.5911C1.32412 7.97106 3.45412 5.84106 6.07412 5.84106H16.0741C18.6941 5.84106 20.8241 7.97106 20.8241 10.5911V12.041C20.8241 12.451 20.4841 12.791 20.0741 12.791H18.9941C18.6441 12.791 18.3241 12.921 18.0941 13.161L18.0841 13.171C17.7541 13.501 17.6241 13.961 17.7441 14.411C17.8941 14.971 18.4841 15.381 19.1441 15.381H20.0741C20.4841 15.381 20.8241 15.721 20.8241 16.131V17.5811C20.8241 20.2111 18.6941 22.3411 16.0741 22.3411ZM6.07412 7.34106C4.28412 7.34106 2.82412 8.80106 2.82412 10.5911V17.5911C2.82412 19.3811 4.28412 20.8411 6.07412 20.8411H16.0741C17.8641 20.8411 19.3241 19.3811 19.3241 17.5911V16.8911H19.1441C17.7941 16.8911 16.6241 16.041 16.2941 14.811C16.0341 13.841 16.3141 12.811 17.0241 12.111C17.5441 11.581 18.2441 11.291 18.9941 11.291H19.3241V10.5911C19.3241 8.80106 17.8641 7.34106 16.0741 7.34106H6.07412Z" fill="currentColor"/>
<path d="M21.044 16.8911H19.114C17.604 16.8911 16.324 15.7711 16.204 14.3311C16.124 13.5011 16.424 12.691 17.024 12.101C17.524 11.581 18.234 11.291 18.984 11.291H21.0341C22.0141 11.291 22.814 12.081 22.814 13.061V15.121C22.824 16.101 22.024 16.8911 21.044 16.8911ZM18.994 12.791C18.644 12.791 18.324 12.921 18.094 13.161C17.804 13.441 17.664 13.821 17.704 14.201C17.754 14.861 18.394 15.3911 19.114 15.3911H21.044C21.194 15.3911 21.324 15.271 21.324 15.121V13.061C21.324 12.911 21.194 12.791 21.044 12.791H18.994Z" fill="currentColor"/>
</svg>
