<svg width="25" height="25" viewBox="0 0 25 25" fill="none" xmlns="http://www.w3.org/2000/svg">
<path d="M12.1441 22.4211C10.7341 22.4211 9.31412 21.8811 8.24412 20.8111L3.71412 16.2811C2.61412 15.1811 2.03412 13.6611 2.10412 12.1111L2.34412 7.10112C2.45412 4.71112 4.34412 2.82112 6.74412 2.70112L11.7441 2.46112C13.3041 2.39112 14.8141 2.97112 15.9141 4.07112L20.4441 8.60112C22.5941 10.7511 22.5941 14.2611 20.4441 16.4111L16.0541 20.8011C14.9741 21.8811 13.5641 22.4211 12.1441 22.4211ZM4.77412 15.2111L9.30412 19.7411C10.8741 21.3111 13.4241 21.3111 14.9941 19.7411L19.3841 15.3511C20.9541 13.7811 20.9541 11.2311 19.3841 9.66112L14.8441 5.14112C14.0441 4.34112 12.9541 3.92112 11.8041 3.97112L6.80412 4.21112C5.18412 4.28112 3.91412 5.55112 3.83412 7.17112L3.59412 12.1811C3.54412 13.3011 3.97412 14.4111 4.77412 15.2111Z" fill="currentColor"/>
<path d="M9.57412 13.1912C7.78412 13.1912 6.32412 11.7312 6.32412 9.94116C6.32412 8.15116 7.78412 6.69116 9.57412 6.69116C11.3641 6.69116 12.8241 8.15116 12.8241 9.94116C12.8241 11.7312 11.3641 13.1912 9.57412 13.1912ZM9.57412 8.19116C8.61412 8.19116 7.82412 8.98116 7.82412 9.94116C7.82412 10.9012 8.61412 11.6912 9.57412 11.6912C10.5341 11.6912 11.3241 10.9012 11.3241 9.94116C11.3241 8.98116 10.5341 8.19116 9.57412 8.19116Z" fill="currentColor"/>
<path d="M13.0741 18.1911C12.8841 18.1911 12.6941 18.1211 12.5441 17.9711C12.2541 17.6811 12.2541 17.2011 12.5441 16.9111L16.5441 12.9111C16.8341 12.6211 17.3141 12.6211 17.6041 12.9111C17.8941 13.2011 17.8941 13.6811 17.6041 13.9711L13.6041 17.9711C13.4541 18.1211 13.2641 18.1911 13.0741 18.1911Z" fill="currentColor"/>
</svg>
