<svg width="25" height="25" viewBox="0 0 25 25" fill="none" xmlns="http://www.w3.org/2000/svg">
<path d="M5.26412 6.82098C5.07412 6.82098 4.87412 6.74098 4.73412 6.60098C4.44412 6.31098 4.44412 5.83098 4.73412 5.54098L8.36412 1.91098C8.65412 1.62098 9.13412 1.62098 9.42412 1.91098C9.71412 2.20098 9.71412 2.68098 9.42412 2.97098L5.79412 6.60098C5.64412 6.74098 5.45412 6.82098 5.26412 6.82098Z" fill="currentColor"/>
<path d="M18.8841 6.82098C18.6941 6.82098 18.5041 6.75098 18.3541 6.60098L14.7241 2.97098C14.4341 2.68098 14.4341 2.20098 14.7241 1.91098C15.0141 1.62098 15.4941 1.62098 15.7841 1.91098L19.4141 5.54098C19.7041 5.83098 19.7041 6.31098 19.4141 6.60098C19.2741 6.74098 19.0741 6.82098 18.8841 6.82098Z" fill="currentColor"/>
<path d="M20.2841 11.041C20.2141 11.041 20.1441 11.041 20.0741 11.041H19.8441H4.07412C3.37412 11.051 2.57412 11.051 1.99412 10.471C1.53412 10.021 1.32412 9.32102 1.32412 8.29102C1.32412 5.54102 3.33412 5.54102 4.29412 5.54102H19.8541C20.8141 5.54102 22.8241 5.54102 22.8241 8.29102C22.8241 9.33102 22.6141 10.021 22.1541 10.471C21.6341 10.991 20.9341 11.041 20.2841 11.041ZM4.29412 9.54102H20.0841C20.5341 9.55102 20.9541 9.55102 21.0941 9.41102C21.1641 9.34102 21.3141 9.10102 21.3141 8.29102C21.3141 7.16102 21.0341 7.04102 19.8441 7.04102H4.29412C3.10412 7.04102 2.82412 7.16102 2.82412 8.29102C2.82412 9.10102 2.98412 9.34102 3.04412 9.41102C3.18412 9.54102 3.61412 9.54102 4.05412 9.54102H4.29412Z" fill="currentColor"/>
<path d="M9.83412 18.741C9.42412 18.741 9.08412 18.401 9.08412 17.991V14.441C9.08412 14.031 9.42412 13.691 9.83412 13.691C10.2441 13.691 10.5841 14.031 10.5841 14.441V17.991C10.5841 18.411 10.2441 18.741 9.83412 18.741Z" fill="currentColor"/>
<path d="M14.4341 18.741C14.0241 18.741 13.6841 18.401 13.6841 17.991V14.441C13.6841 14.031 14.0241 13.691 14.4341 13.691C14.8441 13.691 15.1841 14.031 15.1841 14.441V17.991C15.1841 18.411 14.8441 18.741 14.4341 18.741Z" fill="currentColor"/>
<path d="M14.9641 23.191H8.93412C5.35412 23.191 4.55412 21.061 4.24412 19.211L2.83412 10.561C2.76412 10.151 3.04412 9.77104 3.45412 9.70104C3.86412 9.63104 4.24412 9.91104 4.31412 10.321L5.72412 18.961C6.01412 20.731 6.61412 21.691 8.93412 21.691H14.9641C17.5341 21.691 17.8241 20.791 18.1541 19.051L19.8341 10.301C19.9141 9.89104 20.3041 9.62104 20.7141 9.71104C21.1241 9.79104 21.3841 10.181 21.3041 10.591L19.6241 19.341C19.2341 21.371 18.5841 23.191 14.9641 23.191Z" fill="currentColor"/>
</svg>
