<svg width="25" height="25" viewBox="0 0 25 25" fill="none" xmlns="http://www.w3.org/2000/svg">
<path d="M12.074 13.7409C11.944 13.7409 11.814 13.7109 11.694 13.6409L2.86397 8.53094C2.50397 8.32094 2.38395 7.86091 2.59395 7.50091C2.80395 7.14091 3.26397 7.02089 3.61397 7.23089L12.064 12.1209L20.464 7.26092C20.824 7.05092 21.284 7.18094 21.484 7.53094C21.694 7.89094 21.564 8.35091 21.214 8.56091L12.444 13.6409C12.334 13.7009 12.204 13.7409 12.074 13.7409Z" fill="currentColor"/>
<path d="M12.0741 22.8008C11.6641 22.8008 11.3241 22.4608 11.3241 22.0508V12.9808C11.3241 12.5708 11.6641 12.2308 12.0741 12.2308C12.4841 12.2308 12.8241 12.5708 12.8241 12.9808V22.0508C12.8241 22.4608 12.4841 22.8008 12.0741 22.8008Z" fill="currentColor"/>
<path d="M12.074 23.191C11.194 23.191 10.314 23.0009 9.634 22.6109L4.294 19.651C2.844 18.851 1.704 16.921 1.704 15.261V9.60094C1.704 7.94094 2.844 6.02098 4.294 5.21098L9.634 2.25096C10.994 1.48096 13.134 1.48096 14.504 2.25096L19.844 5.21098C21.294 6.01098 22.434 7.94094 22.434 9.60094V15.261C22.434 15.361 22.434 15.4409 22.414 15.5409C22.364 15.8009 22.174 16.0209 21.924 16.1009C21.674 16.1909 21.394 16.131 21.184 15.961C20.034 14.961 18.254 14.921 17.044 15.891C16.274 16.501 15.824 17.4309 15.824 18.4209C15.824 19.0109 15.984 19.591 16.294 20.091C16.374 20.231 16.454 20.341 16.544 20.451C16.694 20.621 16.754 20.851 16.714 21.071C16.674 21.291 16.534 21.481 16.334 21.591L14.504 22.6009C13.824 23.0009 12.954 23.191 12.074 23.191ZM12.074 3.19096C11.454 3.19096 10.824 3.32097 10.374 3.57097L5.03399 6.53099C4.06399 7.06099 3.22399 8.50094 3.22399 9.60094V15.261C3.22399 16.361 4.07399 17.801 5.03399 18.331L10.374 21.2909C11.284 21.8009 12.874 21.8009 13.784 21.2909L14.904 20.6709C14.534 20.0009 14.334 19.2209 14.334 18.4209C14.334 16.9609 14.984 15.611 16.114 14.711C17.474 13.621 19.424 13.3909 20.944 14.0409V9.58098C20.944 8.48098 20.094 7.04097 19.134 6.51097L13.794 3.55095C13.324 3.32095 12.694 3.19096 12.074 3.19096Z" fill="currentColor"/>
<path d="M19.0741 23.191C17.4141 23.191 15.8541 22.311 15.0141 20.881C14.5641 20.161 14.3241 19.311 14.3241 18.441C14.3241 16.981 14.9741 15.631 16.1041 14.731C16.9441 14.061 18.0041 13.691 19.0741 13.691C21.6941 13.691 23.8241 15.821 23.8241 18.441C23.8241 19.311 23.5841 20.1611 23.1341 20.8911C22.8941 21.3111 22.5641 21.691 22.1841 22.011C21.3541 22.771 20.2441 23.191 19.0741 23.191ZM19.0741 15.191C18.3341 15.191 17.6341 15.441 17.0441 15.911C16.2741 16.521 15.8241 17.451 15.8241 18.441C15.8241 19.031 15.9841 19.611 16.2941 20.111C16.8841 21.111 17.9241 21.691 19.0741 21.691C19.8641 21.691 20.6241 21.401 21.2041 20.881C21.4641 20.661 21.6841 20.401 21.8441 20.121C22.1641 19.611 22.3241 19.031 22.3241 18.441C22.3241 16.651 20.8641 15.191 19.0741 15.191Z" fill="currentColor"/>
<path d="M20.144 20.231C19.954 20.231 19.764 20.161 19.614 20.011L17.504 17.901C17.214 17.611 17.214 17.131 17.504 16.841C17.794 16.551 18.274 16.551 18.564 16.841L20.674 18.951C20.964 19.241 20.964 19.721 20.674 20.011C20.524 20.161 20.334 20.231 20.144 20.231Z" fill="currentColor"/>
<path d="M18.0042 20.261C17.8142 20.261 17.6242 20.1909 17.4742 20.0409C17.1842 19.7509 17.1842 19.2709 17.4742 18.9809L19.5843 16.8709C19.8743 16.5809 20.3543 16.5809 20.6443 16.8709C20.9343 17.1609 20.9343 17.6409 20.6443 17.9309L18.5342 20.0409C18.3842 20.1909 18.1942 20.261 18.0042 20.261Z" fill="currentColor"/>
</svg>
