<svg width="25" height="25" viewBox="0 0 25 25" fill="none" xmlns="http://www.w3.org/2000/svg">
<path d="M12.0741 16.1912C10.0041 16.1912 8.32412 14.5112 8.32412 12.4412C8.32412 10.3712 10.0041 8.69116 12.0741 8.69116C14.1441 8.69116 15.8241 10.3712 15.8241 12.4412C15.8241 14.5112 14.1441 16.1912 12.0741 16.1912ZM12.0741 10.1912C10.8341 10.1912 9.82412 11.2012 9.82412 12.4412C9.82412 13.6812 10.8341 14.6912 12.0741 14.6912C13.3141 14.6912 14.3241 13.6812 14.3241 12.4412C14.3241 11.2012 13.3141 10.1912 12.0741 10.1912Z" fill="currentColor"/>
<path d="M15.2841 22.6312C15.0741 22.6312 14.8641 22.6012 14.6541 22.5512C14.0341 22.3812 13.5141 21.9912 13.1841 21.4412L13.0641 21.2412C12.4741 20.2212 11.6641 20.2212 11.0741 21.2412L10.9641 21.4312C10.6341 21.9912 10.1141 22.3912 9.49412 22.5512C8.86412 22.7212 8.21412 22.6312 7.66412 22.3012L5.94412 21.3112C5.33412 20.9612 4.89412 20.3912 4.70412 19.7012C4.52412 19.0112 4.61412 18.3012 4.96412 17.6912C5.25412 17.1812 5.33412 16.7212 5.16412 16.4312C4.99412 16.1412 4.56412 15.9712 3.97412 15.9712C2.51412 15.9712 1.32412 14.7812 1.32412 13.3212V11.5612C1.32412 10.1012 2.51412 8.9112 3.97412 8.9112C4.56412 8.9112 4.99412 8.7412 5.16412 8.4512C5.33412 8.1612 5.26412 7.7012 4.96412 7.1912C4.61412 6.5812 4.52412 5.8612 4.70412 5.1812C4.88412 4.4912 5.32412 3.9212 5.94412 3.5712L7.67412 2.5812C8.80412 1.9112 10.2941 2.3012 10.9741 3.4512L11.0941 3.6512C11.6841 4.6712 12.4941 4.6712 13.0841 3.6512L13.1941 3.4612C13.8741 2.3012 15.3641 1.9112 16.5041 2.5912L18.2241 3.5812C18.8341 3.9312 19.2741 4.5012 19.4641 5.1912C19.6441 5.8812 19.5541 6.5912 19.2041 7.2012C18.9141 7.7112 18.8341 8.17121 19.0041 8.46121C19.1741 8.7512 19.6041 8.9212 20.1941 8.9212C21.6541 8.9212 22.8441 10.1112 22.8441 11.5712V13.3312C22.8441 14.7912 21.6541 15.9812 20.1941 15.9812C19.6041 15.9812 19.1741 16.1512 19.0041 16.4412C18.8341 16.7312 18.9041 17.1912 19.2041 17.7012C19.5541 18.3112 19.6541 19.0312 19.4641 19.7112C19.2841 20.4012 18.8441 20.9712 18.2241 21.3212L16.4941 22.3112C16.1141 22.5212 15.7041 22.6312 15.2841 22.6312ZM12.0741 18.9312C12.9641 18.9312 13.7941 19.4912 14.3641 20.4812L14.4741 20.6712C14.5941 20.8812 14.7941 21.0312 15.0341 21.0912C15.2741 21.1512 15.5141 21.1212 15.7141 21.0012L17.4441 20.0012C17.7041 19.8512 17.9041 19.6012 17.9841 19.3012C18.0641 19.0012 18.0241 18.6912 17.8741 18.4312C17.3041 17.4512 17.2341 16.4412 17.6741 15.6712C18.1141 14.9012 19.0241 14.4612 20.1641 14.4612C20.8041 14.4612 21.3141 13.9512 21.3141 13.3112V11.5512C21.3141 10.9212 20.8041 10.4012 20.1641 10.4012C19.0241 10.4012 18.1141 9.9612 17.6741 9.1912C17.2341 8.4212 17.3041 7.4112 17.8741 6.4312C18.0241 6.1712 18.0641 5.8612 17.9841 5.5612C17.9041 5.2612 17.7141 5.0212 17.4541 4.8612L15.7241 3.8712C15.2941 3.6112 14.7241 3.7612 14.4641 4.2012L14.3541 4.3912C13.7841 5.3812 12.9541 5.9412 12.0641 5.9412C11.1741 5.9412 10.3441 5.3812 9.77412 4.3912L9.66412 4.1912C9.41412 3.7712 8.85412 3.6212 8.42412 3.8712L6.69412 4.8712C6.43412 5.0212 6.23412 5.2712 6.15412 5.5712C6.07412 5.8712 6.11412 6.1812 6.26412 6.4412C6.83412 7.4212 6.90412 8.4312 6.46412 9.2012C6.02412 9.9712 5.11412 10.4112 3.97412 10.4112C3.33412 10.4112 2.82412 10.9212 2.82412 11.5612V13.3212C2.82412 13.9512 3.33412 14.4712 3.97412 14.4712C5.11412 14.4712 6.02412 14.9112 6.46412 15.6812C6.90412 16.4512 6.83412 17.4612 6.26412 18.4412C6.11412 18.7012 6.07412 19.0112 6.15412 19.3112C6.23412 19.6112 6.42412 19.8512 6.68412 20.0112L8.41412 21.0012C8.62412 21.1312 8.87412 21.1612 9.10412 21.1012C9.34412 21.0412 9.54412 20.8812 9.67412 20.6712L9.78412 20.4812C10.3541 19.5012 11.1841 18.9312 12.0741 18.9312Z" fill="currentColor"/>
</svg>
