<svg width="39" height="38" viewBox="0 0 39 38" fill="none" xmlns="http://www.w3.org/2000/svg">
<circle cx="19.4592" cy="18.9669" r="18.7105" fill="#DEF8EA"/>
<path d="M19.7761 28.5315C19.0812 28.5315 18.404 28.1751 17.9407 27.5514L17.0408 26.3486C16.8537 26.0991 16.6043 25.9566 16.337 25.9388C16.0697 25.9298 15.8024 26.0457 15.5886 26.2684L15.0807 25.814L15.5707 26.2684C14.2877 27.6405 13.2987 27.5336 12.8265 27.3465C12.3454 27.1594 11.5346 26.5446 11.5346 24.5667V14.5342C11.5346 10.5783 12.6751 9.37549 16.4083 9.37549H23.144C26.8772 9.37549 28.0177 10.5783 28.0177 14.5342V24.5667C28.0177 26.5357 27.2069 27.1505 26.7258 27.3465C26.2536 27.5336 25.2735 27.6405 23.9816 26.2684C23.7677 26.0368 23.5004 25.912 23.2242 25.9388C22.9569 25.9566 22.6986 26.0991 22.5114 26.3486L21.6116 27.5514C21.1483 28.1751 20.4711 28.5315 19.7761 28.5315ZM16.2835 24.5934C16.3192 24.5934 16.3637 24.5934 16.3993 24.5934C17.0587 24.629 17.6824 24.9765 18.1011 25.5378L19.001 26.7406C19.4376 27.3198 20.1058 27.3198 20.5424 26.7406L21.4423 25.5378C21.8699 24.9765 22.4847 24.629 23.153 24.5934C23.8123 24.5577 24.4716 24.8339 24.9527 25.3507C25.6299 26.0724 26.0664 26.1615 26.2268 26.0991C26.4407 26.01 26.6723 25.4933 26.6723 24.5667V14.5342C26.6723 11.3178 26.111 10.712 23.1351 10.712H16.4083C13.4324 10.712 12.8711 11.3178 12.8711 14.5342V24.5667C12.8711 25.5022 13.1027 26.0189 13.3166 26.0991C13.468 26.1615 13.9135 26.0724 14.5907 25.3507C15.0718 24.8607 15.6687 24.5934 16.2835 24.5934Z" fill="#292D32"/>
<path d="M23.5449 18.7305H18.6446C18.2793 18.7305 17.9763 18.4276 17.9763 18.0623C17.9763 17.697 18.2793 17.394 18.6446 17.394H23.5449C23.9102 17.394 24.2132 17.697 24.2132 18.0623C24.2132 18.4276 23.9102 18.7305 23.5449 18.7305Z" fill="#292D32"/>
<path d="M23.5449 15.167H18.6446C18.2793 15.167 17.9763 14.8641 17.9763 14.4988C17.9763 14.1335 18.2793 13.8306 18.6446 13.8306H23.5449C23.9102 13.8306 24.2132 14.1335 24.2132 14.4988C24.2132 14.8641 23.9102 15.167 23.5449 15.167Z" fill="#292D32"/>
<path d="M16.0162 15.3894C15.5262 15.3894 15.1252 14.9884 15.1252 14.4984C15.1252 14.0084 15.5262 13.6074 16.0162 13.6074C16.5063 13.6074 16.9072 14.0084 16.9072 14.4984C16.9072 14.9884 16.5063 15.3894 16.0162 15.3894Z" fill="#292D32"/>
<path d="M16.0162 18.9533C15.5262 18.9533 15.1252 18.5524 15.1252 18.0624C15.1252 17.5723 15.5262 17.1714 16.0162 17.1714C16.5063 17.1714 16.9072 17.5723 16.9072 18.0624C16.9072 18.5524 16.5063 18.9533 16.0162 18.9533Z" fill="#292D32"/>
</svg>
