<svg width="13" height="13" viewBox="0 0 13 13" fill="none" xmlns="http://www.w3.org/2000/svg">
<path d="M8.12485 12.3227H4.8749C1.9337 12.3227 0.677055 11.0661 0.677055 8.12485V4.8749C0.677055 1.9337 1.9337 0.677055 4.8749 0.677055H5.95822C6.1803 0.677055 6.36446 0.861219 6.36446 1.0833C6.36446 1.30538 6.1803 1.48954 5.95822 1.48954H4.8749C2.37786 1.48954 1.48954 2.37786 1.48954 4.8749V8.12485C1.48954 10.6219 2.37786 11.5102 4.8749 11.5102H8.12485C10.6219 11.5102 11.5102 10.6219 11.5102 8.12485V7.04153C11.5102 6.81945 11.6944 6.63529 11.9165 6.63529C12.1385 6.63529 12.3227 6.81945 12.3227 7.04153V8.12485C12.3227 11.0661 11.0661 12.3227 8.12485 12.3227Z" fill="white"/>
<path d="M4.60398 9.58199C4.27357 9.58199 3.97024 9.46282 3.74816 9.24616C3.48275 8.98075 3.369 8.59617 3.42858 8.18992L3.66149 6.55953C3.70482 6.24537 3.91065 5.83913 4.13273 5.61705L8.401 1.34879C9.4789 0.270889 10.573 0.270889 11.6509 1.34879C12.2414 1.93919 12.5068 2.54043 12.4526 3.14167C12.4038 3.62917 12.1439 4.10583 11.6509 4.59332L7.38268 8.86158C7.1606 9.08366 6.75436 9.28949 6.4402 9.33282L4.80981 9.56574C4.73939 9.58198 4.66898 9.58199 4.60398 9.58199ZM8.97515 1.92294L4.70689 6.19121C4.60398 6.29412 4.48481 6.53245 4.46315 6.67328L4.23023 8.30367C4.20857 8.46075 4.24107 8.59075 4.32231 8.672C4.40356 8.75325 4.53356 8.78575 4.69064 8.76408L6.32103 8.53117C6.46186 8.5095 6.70561 8.39034 6.80311 8.28742L11.0714 4.01916C11.4234 3.66708 11.6076 3.35292 11.6347 3.06043C11.6672 2.70835 11.483 2.3346 11.0714 1.91753C10.2047 1.05088 9.60889 1.29462 8.97515 1.92294Z" fill="white"/>
<path d="M10.7519 5.32448C10.714 5.32448 10.6761 5.31906 10.6436 5.30823C9.219 4.9074 8.08694 3.77534 7.68611 2.35078C7.62653 2.13411 7.75111 1.91203 7.96777 1.84703C8.18444 1.78745 8.40652 1.91203 8.4661 2.1287C8.79109 3.28243 9.70649 4.19783 10.8602 4.52282C11.0769 4.58241 11.2015 4.8099 11.1419 5.02657C11.0931 5.21073 10.9306 5.32448 10.7519 5.32448Z" fill="white"/>
</svg>
