<svg width="15" height="15" viewBox="0 0 15 15" fill="none" xmlns="http://www.w3.org/2000/svg">
<path d="M7.5001 14.2188C3.79386 14.2188 0.78137 11.2063 0.78137 7.5001C0.78137 3.79386 3.79386 0.78137 7.5001 0.78137C11.2063 0.78137 14.2188 3.79386 14.2188 7.5001C14.2188 11.2063 11.2063 14.2188 7.5001 14.2188ZM7.5001 1.71887C4.31261 1.71887 1.71887 4.31261 1.71887 7.5001C1.71887 10.6876 4.31261 13.2813 7.5001 13.2813C10.6876 13.2813 13.2813 10.6876 13.2813 7.5001C13.2813 4.31261 10.6876 1.71887 7.5001 1.71887Z" fill="white"/>
<path d="M7.50005 8.59366C7.24381 8.59366 7.03131 8.38117 7.03131 8.12492V4.99993C7.03131 4.74368 7.24381 4.53118 7.50005 4.53118C7.7563 4.53118 7.9688 4.74368 7.9688 4.99993V8.12492C7.9688 8.38117 7.7563 8.59366 7.50005 8.59366Z" fill="white"/>
<path d="M7.50003 10.6251C7.41878 10.6251 7.33753 10.6064 7.26253 10.5751C7.18753 10.5439 7.11878 10.5001 7.05628 10.4439C7.00003 10.3814 6.95628 10.3189 6.92503 10.2376C6.89378 10.1626 6.87503 10.0814 6.87503 10.0001C6.87503 9.91885 6.89378 9.8376 6.92503 9.7626C6.95628 9.6876 7.00003 9.61885 7.05628 9.55635C7.11878 9.5001 7.18753 9.45635 7.26253 9.4251C7.41253 9.3626 7.58753 9.3626 7.73753 9.4251C7.81253 9.45635 7.88128 9.5001 7.94378 9.55635C8.00003 9.61885 8.04378 9.6876 8.07503 9.7626C8.10628 9.8376 8.12503 9.91885 8.12503 10.0001C8.12503 10.0814 8.10628 10.1626 8.07503 10.2376C8.04378 10.3189 8.00003 10.3814 7.94378 10.4439C7.88128 10.5001 7.81253 10.5439 7.73753 10.5751C7.66253 10.6064 7.58128 10.6251 7.50003 10.6251Z" fill="white"/>
</svg>
