<svg width="15" height="15" viewBox="0 0 15 15" fill="none" xmlns="http://www.w3.org/2000/svg">
<g clip-path="url(#clip0_0_6046)">
<path d="M10 3.74993V3.24993C10 2.54987 10 2.19983 9.86376 1.93245C9.74392 1.69724 9.5527 1.50602 9.3175 1.38618C9.05011 1.24994 8.70008 1.24994 8.00001 1.24994H7.00001C6.29995 1.24994 5.94992 1.24994 5.68253 1.38618C5.44733 1.50602 5.2561 1.69724 5.13626 1.93245C5.00002 2.19983 5.00002 2.54987 5.00002 3.24993V3.74993M6.25002 7.18742V10.3124M8.75001 7.18742V10.3124M1.87503 3.74993H13.125M11.875 3.74993V10.7499C11.875 11.8 11.875 12.325 11.6706 12.7261C11.4909 13.0789 11.204 13.3658 10.8512 13.5455C10.4502 13.7499 9.9251 13.7499 8.87501 13.7499H6.12502C5.07492 13.7499 4.54988 13.7499 4.14879 13.5455C3.79599 13.3658 3.50915 13.0789 3.32939 12.7261C3.12503 12.325 3.12503 11.8 3.12503 10.7499V3.74993" stroke="white" stroke-width="0.743702" stroke-linecap="round" stroke-linejoin="round"/>
</g>
<defs>
<clipPath id="clip0_0_6046">
<rect width="14.3181" height="14.3181" fill="white" transform="scale(1.04762)"/>
</clipPath>
</defs>
</svg>
